<svg width="347" height="127" viewBox="0 0 347 127" fill="none" xmlns="http://www.w3.org/2000/svg">
<path d="M33.1875 40.6175V48.43H3.3125V3.33621H33.1875V11.1175H12.75V21.9925H32.0312V29.2425H12.75V40.6175H33.1875ZM70.5625 14.0237L58.6875 48.43H48.4375L36.5 14.0237H46.25L53.5625 40.2737H53.75L61.0312 14.0237H70.5625ZM88.3125 20.2425C86.2292 20.2425 84.4896 20.93 83.0938 22.305C81.7188 23.68 80.9479 25.4716 80.7812 27.68H95.625C95.5417 25.43 94.8333 23.6279 93.5 22.2737C92.1667 20.9195 90.4375 20.2425 88.3125 20.2425ZM95.75 37.93H104.156C103.656 41.2633 101.979 43.9508 99.125 45.9925C96.2708 48.0133 92.75 49.0237 88.5625 49.0237C83.3333 49.0237 79.2083 47.4508 76.1875 44.305C73.1875 41.1591 71.6875 36.8466 71.6875 31.3675C71.6875 25.8883 73.1771 21.5341 76.1562 18.305C79.1562 15.055 83.1771 13.43 88.2188 13.43C93.1771 13.43 97.1146 14.9716 100.031 18.055C102.969 21.1383 104.438 25.2945 104.438 30.5237V33.3362H80.6875V33.8987C80.6875 36.3779 81.4271 38.3883 82.9062 39.93C84.3854 41.4508 86.3229 42.2112 88.7188 42.2112C90.4479 42.2112 91.9375 41.8362 93.1875 41.0862C94.4583 40.3154 95.3125 39.2633 95.75 37.93ZM109.344 48.43V14.0237H118.156V20.18H118.344C118.927 18.0758 119.927 16.4612 121.344 15.3362C122.76 14.1904 124.49 13.6175 126.531 13.6175C127.552 13.6175 128.406 13.732 129.094 13.9612V22.055C128.281 21.68 127.188 21.4925 125.812 21.4925C123.5 21.4925 121.698 22.1695 120.406 23.5237C119.115 24.8779 118.469 26.7633 118.469 29.18V48.43H109.344ZM137.469 60.9925C135.615 60.9925 134.458 60.9508 134 60.8675V53.805C134.312 53.8675 135 53.8987 136.062 53.8987C137.792 53.8987 139.146 53.5758 140.125 52.93C141.125 52.305 141.802 51.3154 142.156 49.9612L142.469 48.6487L130.406 14.0237H140.406L147.844 41.0237H148.031L155.5 14.0237H165.125L153.219 49.1175C151.76 53.4925 149.844 56.5654 147.469 58.3362C145.115 60.107 141.781 60.9925 137.469 60.9925ZM192.031 48.43H183V3.33621H190.875L211.938 32.7112H212.188V3.33621H221.219V48.43H213.406L192.312 18.8987H192.031V48.43ZM243.781 49.0237C238.552 49.0237 234.417 47.4404 231.375 44.2737C228.333 41.107 226.812 36.7529 226.812 31.2112C226.812 25.732 228.344 21.3987 231.406 18.2112C234.469 15.0237 238.594 13.43 243.781 13.43C248.99 13.43 253.115 15.0237 256.156 18.2112C259.219 21.3779 260.75 25.7112 260.75 31.2112C260.75 36.7737 259.229 41.1383 256.188 44.305C253.167 47.4508 249.031 49.0237 243.781 49.0237ZM238.094 39.18C239.469 41.055 241.365 41.9925 243.781 41.9925C246.198 41.9925 248.083 41.055 249.438 39.18C250.792 37.2841 251.469 34.6279 251.469 31.2112C251.469 27.8362 250.781 25.2008 249.406 23.305C248.052 21.3883 246.177 20.43 243.781 20.43C241.365 20.43 239.469 21.3883 238.094 23.305C236.74 25.2008 236.062 27.8362 236.062 31.2112C236.062 34.6279 236.74 37.2841 238.094 39.18ZM265.812 48.43V14.0237H274.938V48.43H265.812ZM270.375 10.2737C269.021 10.2737 267.865 9.81538 266.906 8.89871C265.948 7.98205 265.469 6.84663 265.469 5.49246C265.469 4.1383 265.948 3.0133 266.906 2.11746C267.865 1.2008 269.021 0.742462 270.375 0.742462C271.75 0.742462 272.917 1.2008 273.875 2.11746C274.833 3.0133 275.312 4.1383 275.312 5.49246C275.312 6.84663 274.833 7.98205 273.875 8.89871C272.917 9.81538 271.75 10.2737 270.375 10.2737ZM280.688 24.1487C280.688 20.9195 282 18.3258 284.625 16.3675C287.25 14.4091 290.74 13.43 295.094 13.43C299.344 13.43 302.771 14.43 305.375 16.43C307.979 18.4091 309.312 21.0445 309.375 24.3362H300.938C300.833 22.982 300.25 21.9091 299.188 21.1175C298.125 20.305 296.719 19.8987 294.969 19.8987C293.323 19.8987 292 20.2425 291 20.93C290 21.5966 289.5 22.482 289.5 23.5862C289.5 25.2737 291.031 26.4716 294.094 27.18L300.562 28.5862C304.021 29.3779 306.49 30.4925 307.969 31.93C309.469 33.3675 310.219 35.3675 310.219 37.93C310.219 41.2633 308.823 43.9508 306.031 45.9925C303.24 48.0133 299.583 49.0237 295.062 49.0237C290.583 49.0237 286.979 48.0341 284.25 46.055C281.542 44.055 280.073 41.3779 279.844 38.0237H288.75C288.979 39.482 289.656 40.607 290.781 41.3987C291.906 42.1695 293.417 42.555 295.312 42.555C297.125 42.555 298.552 42.232 299.594 41.5862C300.635 40.9195 301.156 40.0237 301.156 38.8987C301.156 38.0029 300.823 37.2945 300.156 36.7737C299.51 36.2529 298.406 35.805 296.844 35.43L290.5 33.9925C283.958 32.5133 280.688 29.232 280.688 24.1487ZM330.312 20.2425C328.229 20.2425 326.49 20.93 325.094 22.305C323.719 23.68 322.948 25.4716 322.781 27.68H337.625C337.542 25.43 336.833 23.6279 335.5 22.2737C334.167 20.9195 332.438 20.2425 330.312 20.2425ZM337.75 37.93H346.156C345.656 41.2633 343.979 43.9508 341.125 45.9925C338.271 48.0133 334.75 49.0237 330.562 49.0237C325.333 49.0237 321.208 47.4508 318.188 44.305C315.188 41.1591 313.688 36.8466 313.688 31.3675C313.688 25.8883 315.177 21.5341 318.156 18.305C321.156 15.055 325.177 13.43 330.219 13.43C335.177 13.43 339.115 14.9716 342.031 18.055C344.969 21.1383 346.438 25.2945 346.438 30.5237V33.3362H322.688V33.8987C322.688 36.3779 323.427 38.3883 324.906 39.93C326.385 41.4508 328.323 42.2112 330.719 42.2112C332.448 42.2112 333.938 41.8362 335.188 41.0862C336.458 40.3154 337.312 39.2633 337.75 37.93ZM32.8438 125.43L29.4062 114.492H13.5625L10.125 125.43H0.4375L16.0938 80.3362H27.1875L42.875 125.43H32.8438ZM21.375 88.9612L15.5938 107.43H27.375L21.5938 88.9612H21.375ZM47.0938 125.43V78.18H56.2188V125.43H47.0938ZM62.9062 125.43V78.18H72.0312V125.43H62.9062ZM122.406 125.43L118.969 114.492H103.125L99.6875 125.43H90L105.656 80.3362H116.75L132.438 125.43H122.406ZM110.938 88.9612L105.156 107.43H116.938L111.156 88.9612H110.938ZM136.656 83.3675H145.781V91.0237H152.156V97.93H145.781V114.649C145.781 117.274 147.146 118.586 149.875 118.586C150.771 118.586 151.531 118.534 152.156 118.43V125.18C150.906 125.43 149.438 125.555 147.75 125.555C143.771 125.555 140.927 124.826 139.219 123.367C137.51 121.909 136.656 119.503 136.656 116.149V97.93H132V91.0237H136.656V83.3675ZM176.25 85.8362C180.167 81.6487 185.469 79.555 192.156 79.555C198.844 79.555 204.135 81.6487 208.031 85.8362C211.948 90.0237 213.906 95.7112 213.906 102.899C213.906 110.065 211.948 115.742 208.031 119.93C204.115 124.117 198.823 126.211 192.156 126.211C185.469 126.211 180.167 124.117 176.25 119.93C172.354 115.742 170.406 110.065 170.406 102.899C170.406 95.7112 172.354 90.0237 176.25 85.8362ZM200.969 91.6175C198.781 88.8258 195.844 87.43 192.156 87.43C188.469 87.43 185.521 88.8258 183.312 91.6175C181.125 94.4091 180.031 98.1695 180.031 102.899C180.031 107.607 181.125 111.357 183.312 114.149C185.5 116.92 188.448 118.305 192.156 118.305C195.844 118.305 198.781 116.92 200.969 114.149C203.156 111.357 204.25 107.607 204.25 102.899C204.25 98.1695 203.156 94.4091 200.969 91.6175ZM219.344 125.43V91.0237H228.156V97.18H228.344C230.365 92.7425 234.052 90.5237 239.406 90.5237C243.219 90.5237 246.208 91.6591 248.375 93.93C250.562 96.2008 251.656 99.3466 251.656 103.367V125.43H242.531V105.274C242.531 102.982 241.938 101.222 240.75 99.9925C239.583 98.7425 237.927 98.1175 235.781 98.1175C233.594 98.1175 231.823 98.8258 230.469 100.242C229.135 101.659 228.469 103.513 228.469 105.805V125.43H219.344ZM288.812 103.711H280.312C280.062 101.878 279.323 100.409 278.094 99.305C276.865 98.18 275.281 97.6175 273.344 97.6175C270.99 97.6175 269.125 98.5654 267.75 100.461C266.375 102.336 265.688 104.92 265.688 108.211C265.688 111.545 266.375 114.149 267.75 116.024C269.125 117.878 271 118.805 273.375 118.805C275.312 118.805 276.885 118.295 278.094 117.274C279.302 116.253 280.052 114.805 280.344 112.93H288.844C288.573 116.93 287.031 120.117 284.219 122.492C281.427 124.847 277.781 126.024 273.281 126.024C268.115 126.024 264.01 124.43 260.969 121.242C257.948 118.055 256.438 113.711 256.438 108.211C256.438 102.774 257.948 98.4508 260.969 95.2425C264.01 92.0341 268.094 90.43 273.219 90.43C277.76 90.43 281.438 91.6695 284.25 94.1487C287.062 96.6279 288.583 99.8154 288.812 103.711ZM308.75 97.2425C306.667 97.2425 304.927 97.93 303.531 99.305C302.156 100.68 301.385 102.472 301.219 104.68H316.062C315.979 102.43 315.271 100.628 313.938 99.2737C312.604 97.9195 310.875 97.2425 308.75 97.2425ZM316.188 114.93H324.594C324.094 118.263 322.417 120.951 319.562 122.992C316.708 125.013 313.188 126.024 309 126.024C303.771 126.024 299.646 124.451 296.625 121.305C293.625 118.159 292.125 113.847 292.125 108.367C292.125 102.888 293.615 98.5341 296.594 95.305C299.594 92.055 303.615 90.43 308.656 90.43C313.615 90.43 317.552 91.9716 320.469 95.055C323.406 98.1383 324.875 102.295 324.875 107.524V110.336H301.125V110.899C301.125 113.378 301.865 115.388 303.344 116.93C304.823 118.451 306.76 119.211 309.156 119.211C310.885 119.211 312.375 118.836 313.625 118.086C314.896 117.315 315.75 116.263 316.188 114.93ZM339.156 124.336C338.177 125.315 336.99 125.805 335.594 125.805C334.198 125.805 333.01 125.315 332.031 124.336C331.052 123.357 330.562 122.17 330.562 120.774C330.562 119.378 331.052 118.19 332.031 117.211C333.01 116.232 334.198 115.742 335.594 115.742C336.99 115.742 338.177 116.232 339.156 117.211C340.135 118.19 340.625 119.378 340.625 120.774C340.625 122.17 340.135 123.357 339.156 124.336Z" fill="white"/>
</svg>
