<svg width="555" height="167" viewBox="0 0 555 167" fill="none" xmlns="http://www.w3.org/2000/svg">
<path d="M508.523 55.2728V1.84009H521.826L537.669 28.6685C538.491 30.1631 541.33 35.469 541.33 35.469H541.48C541.48 35.469 541.33 29.0422 541.33 27.1739V1.84009H554.259V55.2728H540.957L525.263 28.818C524.366 27.3981 521.452 21.6438 521.452 21.6438H521.302C521.302 21.6438 521.452 28.5191 521.452 30.3873V55.2728H508.523Z" fill="#F9F9F9"/>
<path d="M476.982 45.782C485.651 45.782 489.911 38.3836 489.911 28.6686C489.911 18.9536 485.651 11.4805 476.982 11.4805C468.388 11.4805 463.979 18.9536 463.979 28.6686C463.979 38.3836 468.388 45.782 476.982 45.782ZM476.907 56.5433C460.766 56.5433 450.527 44.661 450.527 28.6686C450.527 12.6762 460.766 0.793945 476.907 0.793945C493.124 0.793945 503.362 12.6762 503.362 28.6686C503.362 44.661 493.124 56.5433 476.907 56.5433Z" fill="#F9F9F9"/>
<path d="M432.117 55.2728V1.84009H445.345V55.2728H432.117Z" fill="#F9F9F9"/>
<path d="M398.196 55.2728V13.0497H382.652V1.84009H427.117V13.0497H411.424V55.2728H398.196Z" fill="#F9F9F9"/>
<path d="M335.914 55.2728L355.12 1.84009H368.721L388.002 55.2728H374.102L370.963 45.6325H352.28L349.216 55.2728H335.914ZM355.344 36.1416H367.899L363.863 23.2132C362.967 20.4481 361.771 15.6653 361.771 15.6653H361.622C361.622 15.6653 360.351 20.4481 359.454 23.2132L355.344 36.1416Z" fill="#F9F9F9"/>
<path d="M288.781 55.2728V1.84009H314.339C324.951 1.84009 333.022 7.29545 333.022 17.2347C333.022 23.4373 329.958 27.9959 323.755 30.1631V30.3873C328.389 31.9567 330.78 34.8712 331.527 40.1771C332.648 47.2018 331.901 53.9276 333.769 54.6002V55.2728H320.916C319.496 54.4507 319.72 48.1733 318.898 42.8674C318.225 37.9352 315.684 35.2448 310.005 35.2448H302.009V55.2728H288.781ZM302.009 25.4551H311.948C317.179 25.4551 319.869 22.989 319.869 18.9535C319.869 15.0675 317.328 12.3024 312.247 12.3024H302.009V25.4551Z" fill="#F9F9F9"/>
<path d="M257.24 45.782C265.909 45.782 270.168 38.3836 270.168 28.6686C270.168 18.9536 265.909 11.4805 257.24 11.4805C248.646 11.4805 244.237 18.9536 244.237 28.6686C244.237 38.3836 248.646 45.782 257.24 45.782ZM257.165 56.5433C241.023 56.5433 230.785 44.661 230.785 28.6686C230.785 12.6762 241.023 0.793945 257.165 0.793945C273.382 0.793945 283.62 12.6762 283.62 28.6686C283.62 44.661 273.382 56.5433 257.165 56.5433Z" fill="#F9F9F9"/>
<path d="M192.594 55.2728V1.84009H205.821V44.0631H229.81V55.2728H192.594Z" fill="#F9F9F9"/>
<path d="M143.844 55.2728V1.84009H167.907C174.409 1.84009 179.192 3.63363 182.48 6.77233C185.917 9.98577 187.86 14.5444 187.86 19.925C187.86 30.1631 180.761 37.412 169.775 37.412H157.295V55.2728H143.844ZM157.295 26.9497H167.085C171.868 26.9497 174.558 24.1099 174.558 19.8503C174.558 15.5906 171.793 12.975 167.085 12.975H157.295V26.9497Z" fill="#F9F9F9"/>
<path d="M88.7383 55.2728L106.45 27.2486L90.2329 1.84009H105.329L114.371 17.3841H114.52L123.712 1.84009H138.061L122.218 27.0992L139.929 55.2728H124.31L114.296 37.1879H114.147L103.759 55.2728H88.7383Z" fill="#F9F9F9"/>
<path d="M45.25 55.2728V1.84009H85.7542V12.7508H58.4774V22.3164H81.8682V32.6293H58.4774V44.0631H86.2026V55.2728H45.25Z" fill="#F9F9F9"/>
<path d="M472.679 127.79C458.48 127.79 449.139 121.513 448.84 109.705H462.142C462.74 115.086 466.252 117.328 472.604 117.328C476.939 117.328 481.198 115.759 481.198 111.723C481.198 107.463 476.864 106.567 469.54 104.773C460.274 102.606 450.484 99.7662 450.484 88.5565C450.484 77.1227 459.751 72.1157 471.708 72.1157C483.291 72.1157 492.259 77.3469 492.782 88.5565H479.853C479.33 84.4463 476.191 82.1297 471.259 82.1297C466.626 82.1297 463.562 84.1474 463.562 87.1367C463.562 90.8732 467.672 91.77 475.668 93.5635C485.608 95.8802 494.575 98.9442 494.575 110.378C494.575 121.588 485.01 127.79 472.679 127.79Z" fill="#F9F9F9"/>
<path d="M409.492 126.52V73.0872H422.72V115.31H446.708V126.52H409.492Z" fill="#F9F9F9"/>
<path d="M353.648 126.52L372.854 73.0872H386.455L405.736 126.52H391.836L388.697 116.88H370.015L366.951 126.52H353.648ZM373.078 107.389H385.633L381.598 94.4602C380.701 91.6952 379.505 86.9124 379.505 86.9124H379.356C379.356 86.9124 378.085 91.6952 377.189 94.4602L373.078 107.389Z" fill="#F9F9F9"/>
<path d="M336.805 126.52V73.0872H350.032V126.52H336.805Z" fill="#F9F9F9"/>
<path d="M302.884 126.52V84.2968H287.34V73.0872H331.805V84.2968H316.111V126.52H302.884Z" fill="#F9F9F9"/>
<path d="M236.672 126.52V73.0872H249.974L265.817 99.9156C266.639 101.41 269.479 106.716 269.479 106.716H269.628C269.628 106.716 269.479 100.289 269.479 98.421V73.0872H282.407V126.52H269.105L253.412 100.065C252.515 98.6452 249.6 92.8909 249.6 92.8909H249.451C249.451 92.8909 249.6 99.7661 249.6 101.634V126.52H236.672Z" fill="#F9F9F9"/>
<path d="M189.75 126.52V73.0872H230.254V83.9979H202.977V93.5635H226.368V103.876H202.977V115.31H230.703V126.52H189.75Z" fill="#F9F9F9"/>
<path d="M162.445 127.79C148.246 127.79 138.904 121.513 138.605 109.705H151.908C152.505 115.086 156.018 117.328 162.37 117.328C166.704 117.328 170.964 115.759 170.964 111.723C170.964 107.463 166.63 106.567 159.306 104.773C150.039 102.606 140.25 99.7662 140.25 88.5565C140.25 77.1227 149.516 72.1157 161.473 72.1157C173.056 72.1157 182.024 77.3469 182.547 88.5565H169.619C169.096 84.4463 165.957 82.1297 161.025 82.1297C156.391 82.1297 153.327 84.1474 153.327 87.1367C153.327 90.8732 157.438 91.77 165.434 93.5635C175.373 95.8802 184.341 98.9442 184.341 110.378C184.341 121.588 174.775 127.79 162.445 127.79Z" fill="#F9F9F9"/>
<path d="M113.109 127.79C98.9098 127.79 89.5685 121.513 89.2695 109.705H102.572C103.169 115.086 106.682 117.328 113.034 117.328C117.368 117.328 121.628 115.759 121.628 111.723C121.628 107.463 117.294 106.567 109.97 104.773C100.703 102.606 90.9136 99.7662 90.9136 88.5565C90.9136 77.1227 100.18 72.1157 112.137 72.1157C123.721 72.1157 132.688 77.3469 133.211 88.5565H120.283C119.76 84.4463 116.621 82.1297 111.689 82.1297C107.056 82.1297 103.992 84.1474 103.992 87.1367C103.992 90.8732 108.102 91.77 116.098 93.5635C126.037 95.8802 135.005 98.9442 135.005 110.378C135.005 121.588 125.439 127.79 113.109 127.79Z" fill="#F9F9F9"/>
<path d="M45.25 126.52V73.0872H85.7542V83.9979H58.4774V93.5635H81.8682V103.876H58.4774V115.31H86.2026V126.52H45.25Z" fill="#F9F9F9"/>
<path d="M514.378 71.9847C514.378 71.9847 506.539 99.4985 515.14 114.395C523.283 128.499 536.982 129.839 544.338 126.524L539.018 117.31L526.895 114.063C526.371 113.932 525.979 113.496 525.905 112.961C525.83 112.426 526.086 111.899 526.554 111.629C526.865 111.45 527.236 111.404 527.581 111.502L537.144 114.064L533.385 107.554L522.168 104.55C521.644 104.418 521.253 103.983 521.178 103.448C521.102 102.913 521.36 102.386 521.827 102.116C522.138 101.936 522.509 101.891 522.854 101.99L531.512 104.308L527.753 97.7987L518.346 95.2794C517.823 95.1478 517.43 94.7122 517.356 94.1771C517.281 93.6423 517.538 93.1155 518.005 92.8453C518.317 92.6657 518.687 92.6199 519.032 92.7185L525.879 94.5521L519.206 82.9937C519.026 82.6925 518.972 82.3311 519.058 81.9906C519.143 81.6493 519.361 81.3562 519.663 81.1759C519.97 80.9914 520.34 80.9401 520.687 81.033C521.033 81.1254 521.327 81.3549 521.502 81.6681L528.175 93.2265L530.01 86.3805C530.096 86.0352 530.316 85.7383 530.623 85.5571C530.93 85.3767 531.296 85.3263 531.64 85.4184C531.984 85.5106 532.276 85.737 532.451 86.0473C532.627 86.3568 532.669 86.7244 532.571 87.0662L530.049 96.4726L533.807 102.982L536.128 94.3256C536.213 93.9797 536.434 93.6838 536.741 93.5026C537.047 93.3217 537.414 93.2713 537.758 93.3639C538.102 93.4557 538.394 93.6826 538.569 93.9924C538.745 94.3024 538.787 94.6694 538.688 95.0113L535.681 106.228L539.44 112.738L542.003 103.176C542.088 102.83 542.31 102.534 542.616 102.353C542.923 102.172 543.289 102.122 543.633 102.214C543.977 102.306 544.269 102.533 544.444 102.843C544.62 103.153 544.662 103.52 544.564 103.862L541.314 115.984L546.633 125.197C553.181 120.486 558.871 107.951 550.728 93.8469C542.128 78.9506 514.381 71.9827 514.381 71.9827L514.378 71.9847Z" fill="#F9F9F9"/>
<path d="M47.018 155.036V140.736H57.538V143.176H49.918V146.376H56.598V148.756H49.918V152.616H57.598V155.036H47.018ZM58.9808 151.256V148.916H64.4008V151.256H58.9808ZM72.4381 155.336C68.4181 155.336 65.5581 152.236 65.5581 147.936C65.5581 143.696 68.1981 140.456 72.4181 140.456C75.9381 140.456 78.0181 142.556 78.3181 145.276H75.4381C75.1781 143.836 74.0981 142.896 72.4181 142.896C69.7781 142.896 68.5181 145.096 68.5181 147.936C68.5181 150.856 70.0381 152.956 72.4381 152.956C74.1381 152.956 75.3381 151.936 75.5181 150.436H78.3581C78.2781 151.696 77.7381 152.916 76.7781 153.816C75.7981 154.736 74.4181 155.336 72.4381 155.336ZM84.5877 155.336C81.4077 155.336 79.2277 152.976 79.2277 149.916C79.2277 146.856 81.4077 144.496 84.5877 144.496C87.7677 144.496 89.9477 146.856 89.9477 149.916C89.9477 152.976 87.7677 155.336 84.5877 155.336ZM84.5877 153.256C86.2477 153.256 87.1877 151.916 87.1877 149.916C87.1877 147.916 86.2477 146.556 84.5877 146.556C82.9077 146.556 81.9877 147.916 81.9877 149.916C81.9877 151.916 82.9077 153.256 84.5877 153.256ZM91.212 155.036V144.776H93.832V146.156H93.892C94.452 145.216 95.452 144.496 96.872 144.496C98.172 144.496 99.212 145.216 99.712 146.296H99.752C100.452 145.176 101.532 144.496 102.832 144.496C104.992 144.496 106.212 145.896 106.212 148.136V155.036H103.492V148.596C103.492 147.436 102.912 146.836 101.912 146.836C100.772 146.836 100.072 147.716 100.072 149.076V155.036H97.352V148.596C97.352 147.436 96.772 146.836 95.772 146.836C94.672 146.836 93.932 147.716 93.932 149.076V155.036H91.212ZM107.892 155.036V144.776H110.512V146.156H110.572C111.132 145.216 112.132 144.496 113.552 144.496C114.852 144.496 115.892 145.216 116.392 146.296H116.432C117.132 145.176 118.212 144.496 119.512 144.496C121.672 144.496 122.892 145.896 122.892 148.136V155.036H120.172V148.596C120.172 147.436 119.592 146.836 118.592 146.836C117.452 146.836 116.752 147.716 116.752 149.076V155.036H114.032V148.596C114.032 147.436 113.452 146.836 112.452 146.836C111.352 146.836 110.612 147.716 110.612 149.076V155.036H107.892ZM129.391 155.336C125.991 155.336 124.071 152.956 124.071 149.896C124.071 146.856 126.131 144.496 129.131 144.496C132.431 144.496 134.191 147.016 134.191 150.676H126.751C126.951 152.256 127.831 153.236 129.371 153.236C130.431 153.236 131.051 152.756 131.351 151.976H134.031C133.651 153.796 132.031 155.336 129.391 155.336ZM129.171 146.596C127.731 146.596 127.031 147.456 126.791 148.796H131.351C131.271 147.496 130.411 146.596 129.171 146.596ZM138.07 144.776V146.416H138.13C138.75 145.256 139.45 144.656 140.65 144.656C140.95 144.656 141.13 144.676 141.29 144.736V147.116H141.23C139.45 146.936 138.17 147.876 138.17 150.036V155.036H135.45V144.776H138.07ZM146.929 155.336C143.689 155.336 141.669 152.976 141.669 149.916C141.669 146.856 143.669 144.496 146.789 144.496C149.449 144.496 151.089 146.036 151.449 148.256H148.789C148.609 147.356 147.909 146.676 146.909 146.676C145.269 146.676 144.429 147.936 144.429 149.916C144.429 151.856 145.209 153.156 146.869 153.156C147.969 153.156 148.749 152.576 148.929 151.416H151.549C151.369 153.596 149.669 155.336 146.929 155.336ZM157.555 155.336C154.155 155.336 152.235 152.956 152.235 149.896C152.235 146.856 154.295 144.496 157.295 144.496C160.595 144.496 162.355 147.016 162.355 150.676H154.915C155.115 152.256 155.995 153.236 157.535 153.236C158.595 153.236 159.215 152.756 159.515 151.976H162.195C161.815 153.796 160.195 155.336 157.555 155.336ZM157.335 146.596C155.895 146.596 155.195 147.456 154.955 148.796H159.515C159.435 147.496 158.575 146.596 157.335 146.596ZM167.194 155.036V140.736H173.594C175.134 140.736 176.314 141.116 177.054 141.776C177.834 142.476 178.194 143.336 178.194 144.456C178.194 145.916 177.294 146.856 175.954 147.316V147.376C177.534 147.836 178.614 149.156 178.614 150.916C178.614 152.256 178.194 153.176 177.354 153.896C176.534 154.616 175.274 155.036 173.754 155.036H167.194ZM170.094 148.636V152.636H173.434C174.834 152.636 175.674 151.856 175.674 150.696C175.674 149.336 174.674 148.636 173.354 148.636H170.094ZM170.094 146.496H173.234C174.494 146.496 175.354 145.896 175.354 144.776C175.354 143.716 174.574 143.096 173.294 143.096H170.094V146.496ZM180.221 158.396V156.256H181.181C182.261 156.256 182.701 155.696 182.701 154.856C182.701 154.296 182.501 153.636 181.921 152.076L179.161 144.776H182.021L183.541 149.396C183.861 150.336 184.201 151.636 184.201 151.636H184.241C184.241 151.636 184.521 150.336 184.841 149.396L186.281 144.776H189.021L185.441 155.296C184.661 157.576 183.901 158.396 181.821 158.396H180.221ZM189.843 149.016V146.116H192.763V149.016H189.843ZM189.843 155.036V152.136H192.763V155.036H189.843ZM201.915 155.296C198.955 155.296 197.235 153.936 197.235 151.136V149.716H199.835V150.956C199.835 152.396 200.495 152.956 201.675 152.956C202.855 152.956 203.395 152.256 203.395 150.996V140.736H206.295V151.016C206.295 153.456 204.875 155.296 201.915 155.296ZM214.547 155.036C214.387 154.836 214.287 154.356 214.227 153.896H214.187C213.667 154.676 212.927 155.276 211.167 155.276C209.067 155.276 207.587 154.176 207.587 152.136C207.587 149.876 209.427 149.156 211.707 148.836C213.407 148.596 214.187 148.456 214.187 147.676C214.187 146.936 213.607 146.456 212.467 146.456C211.187 146.456 210.567 146.916 210.487 147.896H208.067C208.147 146.096 209.487 144.516 212.487 144.516C215.567 144.516 216.807 145.896 216.807 148.296V153.516C216.807 154.296 216.927 154.756 217.167 154.936V155.036H214.547ZM211.827 153.376C213.387 153.376 214.247 152.416 214.247 151.416V149.876C213.767 150.156 213.027 150.316 212.347 150.476C210.927 150.796 210.227 151.116 210.227 152.076C210.227 153.036 210.867 153.376 211.827 153.376ZM223.296 155.336C220.056 155.336 218.036 152.976 218.036 149.916C218.036 146.856 220.036 144.496 223.156 144.496C225.816 144.496 227.456 146.036 227.816 148.256H225.156C224.976 147.356 224.276 146.676 223.276 146.676C221.636 146.676 220.796 147.936 220.796 149.916C220.796 151.856 221.576 153.156 223.236 153.156C224.336 153.156 225.116 152.576 225.296 151.416H227.916C227.736 153.596 226.036 155.336 223.296 155.336ZM233.963 155.336C230.783 155.336 228.603 152.976 228.603 149.916C228.603 146.856 230.783 144.496 233.963 144.496C237.143 144.496 239.323 146.856 239.323 149.916C239.323 152.976 237.143 155.336 233.963 155.336ZM233.963 153.256C235.623 153.256 236.563 151.916 236.563 149.916C236.563 147.916 235.623 146.556 233.963 146.556C232.283 146.556 231.363 147.916 231.363 149.916C231.363 151.916 232.283 153.256 233.963 153.256ZM246.307 155.336C244.867 155.336 243.847 154.716 243.247 153.756H243.207V155.036H240.587V140.736H243.307V146.016H243.367C243.927 145.156 244.807 144.496 246.227 144.496C248.807 144.496 250.647 146.716 250.647 149.916C250.647 153.236 248.887 155.336 246.307 155.336ZM245.707 153.056C247.107 153.056 247.887 151.896 247.887 149.916C247.887 148.016 247.127 146.696 245.607 146.696C243.887 146.696 243.247 148.076 243.247 149.976C243.247 151.856 244.187 153.056 245.707 153.056ZM255.495 155.036V140.736H258.395V146.436L263.895 140.736H267.495L261.895 146.456L267.855 155.036H264.455L259.855 148.356L258.395 149.836V155.036H255.495ZM272.713 155.336C269.533 155.336 267.353 152.976 267.353 149.916C267.353 146.856 269.533 144.496 272.713 144.496C275.893 144.496 278.073 146.856 278.073 149.916C278.073 152.976 275.893 155.336 272.713 155.336ZM272.713 153.256C274.373 153.256 275.313 151.916 275.313 149.916C275.313 147.916 274.373 146.556 272.713 146.556C271.033 146.556 270.113 147.916 270.113 149.916C270.113 151.916 271.033 153.256 272.713 153.256ZM284.097 155.336C280.857 155.336 278.837 152.976 278.837 149.916C278.837 146.856 280.837 144.496 283.957 144.496C286.617 144.496 288.257 146.036 288.617 148.256H285.957C285.777 147.356 285.077 146.676 284.077 146.676C282.437 146.676 281.597 147.936 281.597 149.916C281.597 151.856 282.377 153.156 284.037 153.156C285.137 153.156 285.917 152.576 286.097 151.416H288.717C288.537 153.596 286.837 155.336 284.097 155.336ZM292.623 140.736V146.116H292.683C293.423 145.036 294.263 144.496 295.663 144.496C297.783 144.496 299.203 146.096 299.203 148.336V155.036H296.483V148.736C296.483 147.636 295.843 146.856 294.703 146.856C293.503 146.856 292.623 147.816 292.623 149.216V155.036H289.903V140.736H292.623Z" fill="#F9F9F9"/>
</svg>
