<?xml version="1.0" encoding="UTF-8"?>
<svg id="Layer_1" data-name="Layer 1" xmlns="http://www.w3.org/2000/svg" viewBox="0 0 325.34 407.66">
  <defs>
    <style>
      .cls-1 {
        fill: #000;
        stroke-width: 0px;
      }
    </style>
  </defs>
  <path class="cls-1" d="M205.24,117.28l52.44-46.8v209.19c0,77.25-46.8,126.87-123.48,126.87S2.26,359.17,0,284.74l43.42-38.91c3.95,89.09,49.05,111.64,90.22,111.64s71.61-28.76,71.61-82.89V117.28ZM48.49,56.38L100.93,9.59v39.47l-52.44,46.8v-39.47ZM133.63,342.25c-33.27,0-72.74-18.04-74.99-101.49h54.13c1.13,40.03,15.22,77.25,53,93.03-9.02,5.64-19.73,8.46-32.14,8.46ZM60.9,105.44l50.18-45.11h134.76l-50.75,45.11H60.9ZM272.9,45.11H116.15V0h209.19v279.67c0,75.56-50.18,126.3-124.61,127.99,45.67-21.99,72.17-67.66,72.17-127.99V45.11Z"/>
</svg>