<?xml version="1.0" encoding="UTF-8"?>
<svg id="Social_Icons" data-name="Social Icons" xmlns="http://www.w3.org/2000/svg" xmlns:xlink="http://www.w3.org/1999/xlink" viewBox="0 0 32 32">
  <defs>
    <style>
      .cls-1 {
        fill: none;
      }

      .cls-1, .cls-2 {
        stroke-width: 0px;
      }

      .cls-2 {
        fill: url(#radial-gradient);
        fill-rule: evenodd;
      }
    </style>
    <radialGradient id="radial-gradient" cx="-28.89" cy="-46.44" fx="-28.89" fy="-46.44" r="163.55" gradientTransform="translate(12 20.5) scale(.25 -.25)" gradientUnits="userSpaceOnUse">
      <stop offset="0" stop-color="#ffb140"/>
      <stop offset=".26" stop-color="#ff5445"/>
      <stop offset=".6" stop-color="#fc2b82"/>
      <stop offset="1" stop-color="#8e40b7"/>
    </radialGradient>
  </defs>
  <g id="_7_stroke" data-name="7 stroke">
    <g id="Instagram">
      <rect class="cls-1" width="32" height="32"/>
      <path id="Instagram-2" data-name="Instagram" class="cls-2" d="M26.46,7.46c0,1.06-.86,1.92-1.92,1.92s-1.92-.86-1.92-1.92.86-1.92,1.92-1.92c1.06,0,1.92.86,1.92,1.92ZM16,21.33c-2.95,0-5.33-2.39-5.33-5.33s2.39-5.33,5.33-5.33,5.33,2.39,5.33,5.33-2.39,5.33-5.33,5.33ZM16,7.78c-4.54,0-8.22,3.68-8.22,8.22s3.68,8.22,8.22,8.22,8.22-3.68,8.22-8.22c0-4.54-3.68-8.22-8.22-8.22ZM16,2.88c4.27,0,4.78.02,6.47.09,1.56.07,2.41.33,2.97.55.75.29,1.28.64,1.84,1.2.56.56.91,1.09,1.2,1.84.22.56.48,1.41.55,2.97.08,1.69.09,2.19.09,6.47s-.02,4.78-.09,6.47c-.07,1.56-.33,2.41-.55,2.97-.29.75-.64,1.28-1.2,1.84-.56.56-1.09.91-1.84,1.2-.56.22-1.41.48-2.97.55-1.69.08-2.19.09-6.47.09s-4.78-.02-6.47-.09c-1.56-.07-2.41-.33-2.97-.55-.75-.29-1.28-.64-1.84-1.2-.56-.56-.91-1.09-1.2-1.84-.22-.56-.48-1.41-.55-2.97-.08-1.69-.09-2.19-.09-6.47s.02-4.78.09-6.47c.07-1.56.33-2.41.55-2.97.29-.75.64-1.28,1.2-1.84.56-.56,1.09-.91,1.84-1.2.56-.22,1.41-.48,2.97-.55,1.69-.08,2.19-.09,6.47-.09ZM16,0c-4.35,0-4.89.02-6.6.1-1.7.08-2.87.35-3.88.74-1.05.41-1.94.96-2.83,1.85-.89.89-1.44,1.78-1.85,2.83-.4,1.02-.67,2.18-.74,3.88-.08,1.71-.1,2.25-.1,6.6s.02,4.89.1,6.6c.08,1.7.35,2.87.74,3.88.41,1.05.96,1.94,1.85,2.83s1.78,1.44,2.83,1.85c1.02.4,2.18.67,3.88.74,1.71.08,2.25.1,6.6.1s4.89-.02,6.6-.1c1.7-.08,2.87-.35,3.88-.74,1.05-.41,1.94-.96,2.83-1.85.89-.89,1.44-1.78,1.85-2.83.4-1.02.67-2.18.74-3.88.08-1.71.1-2.25.1-6.6s-.02-4.89-.1-6.6c-.08-1.7-.35-2.87-.74-3.88-.41-1.05-.96-1.94-1.85-2.83-.89-.89-1.78-1.44-2.83-1.85-1.02-.4-2.18-.67-3.88-.74-1.71-.08-2.25-.1-6.6-.1Z"/>
    </g>
  </g>
</svg>