<?xml version="1.0" encoding="UTF-8"?>
<svg id="Layer_1" data-name="Layer 1" xmlns="http://www.w3.org/2000/svg" viewBox="0 0 150 50.12">
  <defs>
    <style>
      .cls-1 {
        fill: #42d669;
      }

      .cls-1, .cls-2 {
        stroke-width: 0px;
      }

      .cls-2 {
        fill: #fefffe;
      }
    </style>
  </defs>
  <path class="cls-1" d="M11.7,32.3l-.14-.04-.32-.02-.68-.14-.62-.18-.26-.14-.38-.16-.38-.2-.34-.28-.36-.32-.2-.32-.22-.32-.22-.38-.22-.58-.12-.38-.06-.38-.08-.4-.04-.26-.04-.32-.02-.24v-.34l-.02-.52.08-.38.12-.26.24-.24.34-.12.32-.04.58.04.26.08.26.22.14.34.02.42-.02.62.02.5.02.14.06.24.1.26.08.32.38.54.42.36.34.18.46.16.56.1.38.04.22-.02.24.04.42-.06.58-.14.34-.12.28-.16.42-.36.32-.56.1-.44.02-.2.06-.34.02-.42v-.24l.02-.22-.02-.2.02-.26.02-.28v-.48l-.02-.48.02-.34-.02-.16v-.89l-.02-.12v-.6l.02-.08v-.5l-.04-.62v-1.05l-.02-.38v-.38l.02-.62.02-.72.22-.44.3-.18.56-.08.66.04.36.18.12.18.06.2.04.48.02.42.02.14v.26l.02.38-.02.26.02.28v1.19l.02.42-.02.38v.52l-.04.6.02.3-.02.42v.75l-.02.72v.36l.02.62v.32l-.02.3-.04.42-.02.38-.08.44-.12.26-.04.2-.08.28-.14.36-.16.3-.16.26-.2.24-.24.32-.42.3-.32.22-.22.14-.38.18-.4.14-.24.06-.42.12-.3.06-.7.1-.2.02h-.44l-.46-.02Z"/>
  <path class="cls-1" d="M20.92,32.16l-.26-.06-.36-.18-.28-.22-.2-.24-.08-.24v-.36l.18-.36.12-.3.1-.22.12-.24.18-.42.12-.32.38-.75.2-.44.18-.46.32-.62.2-.46.14-.28.14-.3.16-.34.28-.72.24-.42.16-.44.28-.6.32-.74.18-.4.3-.75.22-.46.1-.3.18-.34.14-.28.04-.16.08-.2.1-.28.14-.2.12-.24.12-.22.08-.16.14-.24.24-.2.5-.1h.54l.26.06.22.2.14.26.12.24.2.46.2.44.38.74.12.32.14.26.12.36.16.36.1.28.14.28.22.5.22.44.14.36.14.24.08.22.14.3.18.32.12.32.12.34.12.2.1.26.2.36.16.4.26.62.36.67.2.48.14.3.08.18.08.26.24.48.18.38.1.16.18.38.14.42.1.34-.08.44-.22.26-.4.2-.7.18-.46-.1-.18-.16-.2-.2-.06-.26-.18-.38-.22-.46-.12-.22-.18-.4-.22-.46-.08-.18-.14-.24-.18-.32-.14-.26-.2-.14-.4-.04-.5.02h-2.32l-.66-.02-.52.04-.28-.02-.34.04-.32.02-.26.14-.12.18-.4.79-.2.36-.06.22-.1.2-.12.28-.16.34-.1.3-.2.32-.24.36-.22.18-.32.08-.34-.02ZM27.97,26.12l.02-.02.06-.02.08-.18-.06-.36-.12-.3-.44-.77-.2-.38-.26-.64-.16-.38-.14-.36-.22-.52-.24-.2-.16.32-.16.5-.34.75-.26.54-.18.5-.16.36-.2.4-.02.16-.04.18v.2l.14.14.34.02h.36l.56.04,1.33.04.46-.02Z"/>
  <path class="cls-1" d="M41.62,32.34l-.38.02-.46-.02-.38-.08-.93-.16-.26-.1-.64-.22-.2-.1-.22-.12-.2-.1-.12-.1-.28-.14-.24-.18-.24-.14-.22-.22-.1-.08-.22-.2-.22-.24-.28-.3-.24-.32-.14-.16-.16-.2-.14-.22-.2-.34-.18-.36-.12-.26-.14-.34-.18-.36-.06-.26-.1-.28-.02-.26-.06-.2-.02-.34-.06-.3-.02-.46-.02-.34v-.6l.1-.36.04-.22.12-.48.16-.62.2-.46.12-.32.12-.24.18-.3.06-.16.04-.06.16-.22.28-.36.3-.38.28-.32.26-.26.4-.32.5-.34.4-.28.6-.32.34-.14.3-.1.32-.1.26-.06.56-.14.32-.06.18-.02.4-.02.42-.04h.44l.44.06.16.04.4.04.42.12.58.18.54.2.14.08.36.2.46.22.42.32.38.28.28.22.32.3.28.34.24.36.1.26-.02.32-.18.32-.2.26-.32.32-.26.14-.34.04-.3-.06-.24-.18-.32-.32-.32-.28-.24-.28-.32-.24-.22-.16-.36-.18-.34-.18-.34-.08-.5-.14-.36-.08h-.44l-.48-.06-.52.08-.36.06-.38.1-.38.12-.42.2-.5.28-.26.16-.2.18-.3.26-.24.24-.22.28-.32.42-.3.64-.26.66-.06.32-.04.28-.04.42v.46l.08.5.06.52.1.34.06.34.12.34.12.16.1.22.08.22.04.08.16.18.24.36.2.24.18.18.28.22.32.28.24.14.42.22.4.2.28.08.38.08.58.1.36.02.68-.04.56-.08.44-.1.42-.14.3-.12.32-.18.4-.28.36-.28.58-.58.2-.22.3-.14.38-.04.6.22.5.54.12.32-.02.24-.1.34-.22.36-.24.24-.34.36-.95.66-.34.18-.16.12-1.09.5-.26.06-.3.08-.26.06-.28.08-.58.04-.42.06-.4-.04Z"/>
  <path class="cls-1" d="M56.32,32.2h-.34l-.3-.02-.4-.06h-.5l-.36-.08-.2-.06-.26-.06-.36-.14-.48-.18-.4-.22-.2-.1-.22-.14-.26-.14-.18-.14-.2-.12-.28-.26-.34-.3-.22-.22-.72-.85-.28-.54-.24-.44-.26-.46-.12-.44-.1-.26-.1-.48-.08-.4-.02-.24-.06-.34-.02-.28.02-.34v-.58l.06-.38.04-.36.16-.5.06-.32.16-.46.2-.52.18-.28.2-.44.38-.6.34-.46.2-.18.14-.18.2-.22.2-.2.16-.08.22-.22.54-.3.48-.24.56-.26.42-.12.26-.12.54-.18.5-.08.32-.06.48.02.7-.02.48.04h.22l.36.06.4.1.26.06.18.08.3.1.28.1.28.14.32.18.42.22.56.36.42.34.42.4.5.6.32.38.14.2.12.24.14.2.18.36.2.46.12.4.1.32.04.18.08.26.1.5.04.32v.28l.02.32-.04.34-.04.52-.04.32-.02.32-.06.4-.06.24-.08.34-.18.48-.16.44-.18.38-.14.24-.1.2-.16.2-.14.18-.12.18-.08.14-.12.14-.22.22-.26.2-.18.18-.14.12-.18.14-.16.14-.2.12-.14.12-.24.16-.4.22-.44.26-.34.14-.22.08-.42.14-.5.14-.42.06h-.58l-.46-.04ZM57,29.89l.26-.02.12-.02.1-.06.08-.04.26-.04.26-.12.24-.08.38-.2.4-.26.52-.38.3-.32.1-.12.16-.24.3-.38.4-.6.12-.44.08-.38.06-.44.04-.54.04-.28-.04-.52-.14-.72-.14-.46-.2-.42-.1-.34-.12-.22-.16-.32-.24-.3-.14-.18-.22-.22-.68-.54-.64-.38-.38-.16-.42-.12-.16-.04-.26-.08-.34-.08h-1.09l-.3.06-.36.04-.46.14-.66.28-1.11.64-.2.22-.16.2-.12.1-.24.34-.18.34-.1.14-.08.22-.14.26-.12.32-.1.32-.04.28-.1.44-.04.5.02.24.02.28.04.32v.3l.02.1.06.22.08.36.06.3.24.44.48.72.38.48.14.16.32.28.4.26.14.08.08.04.36.2.42.2.34.1.56.1.56.08.48.02.58-.06Z"/>
  <path class="cls-1" d="M70.73,31.98l-.5-.02-.38.02h-.26l-.32-.04-.83.02-.22.02-.44-.02-.7.04-.44-.06-.2-.04-.18-.12-.22-.34-.06-.58-.02-.64.04-.68v-.46l-.04-.54-.04-.68v-1.35l.02-.66-.02-.44-.02-.6v-.58l.02-.38-.02-.56v-.34l-.02-.64.02-.48v-.26l.02-.38v-.52l.04-.42v-.83l-.02-.44.04-.3.12-.38.34-.3.44-.1.42.02.28.02.79-.02h.5l.48.02.24-.02h.76l.24.04.34.02.62-.02.32-.04h1.31l.91.1.52.14.26.08.89.44.24.2.22.22.2.22.22.38.28.62.2.62.06.32v.77l-.02.3-.16.6-.2.58-.22.34-.3.4-.16.3.08.12.34.22.28.3.28.44.22.52.22.6.1.42.08.38.02.36-.02.54-.16.6-.08.34-.16.36-.2.44-.24.24-.2.32-.4.34-.54.3-.42.18-.3.08-.52.16-.52.08-.26.06-.3.02-.2.02-.34.04-.36-.02-.52.02h-.52l-.77-.04ZM71.3,23.6l.85.02h.32l.4-.04.68-.1.36-.14.38-.3.2-.26.18-.3.06-.42v-.5l-.1-.32-.1-.26-.18-.24-.44-.26-.48-.18h-.34l-.24-.02-1.01.02-.77-.02h-.5l-.38-.04-.56-.02-.64.04-.36.06-.16.06-.08.16v.32l-.02.3-.08.4.02.48v.5l.06.36v.28l.06.18.08.12.18.06.16.02.4.02h.44l.42.02.62.02.58-.02ZM72.06,29.71l.48-.02.52-.06h.34l.38-.04.34-.02.32-.1.2-.12.26-.24.2-.32.08-.16.1-.22.04-.34.04-.4-.04-.32-.1-.32-.18-.38-.2-.24-.16-.14-.16-.1-.1-.06-.22-.08-.6-.1-.74-.02-.54-.02-.24.02h-.89l-.26-.02-.3.02h-.4l-1.47.02-.28.08-.08.2.02.34.04.3v.38l-.04.6-.04.75v.44l.08.54.16.08.1.04.42.02h.73l.62.02.48-.02.52.04.58-.04Z"/>
  <path class="cls-2" d="M95.46,32.02l-.22-.14-.64-.75-.18-.2-.14-.24-.22-.28-.2-.34-.4-.44-.28-.42-.16-.16-.3-.4-.28-.34-.1-.18-.28-.38-.38-.54-.34-.38-.16-.2-.16-.18-.16-.22-.22-.24-.2-.32-.28-.1-.28.22-.18.18-.2.24-.22.18-.24.26-.24.24-.26.28-.44.4-.42.44-.12.58.02.44.02.42-.04.52.02.44-.02.18v.24l-.02.38-.04.26-.22.26-.42.22-.56.04-.4-.02-.24-.1-.26-.16-.06-.16-.04-.16-.08-.46.02-.18v-.4l-.04-.62v-2.28l.02-.34-.02-.58v-2.56l.02-.54v-.87l-.04-.42.02-.22-.04-.3-.02-.48v-.54l.02-.5-.02-.4.02-.48v-.36l.02-.22.04-.18.1-.24.22-.18.32-.08.2-.02.22.02h.44l.32.04.18.1.22.26.08.26.02.52.02.46v1.13l-.02.75.02.6-.02.44.02.52-.04.42.02.52.02.38v.28l.34-.04.4-.44.26-.24.32-.34.46-.44.48-.48.32-.36.36-.34.28-.28.75-.7.44-.42.22-.22.34-.3.3-.36.38-.38.32-.3.22-.2.22-.26.34-.34.32-.28.12-.06.26-.08.5.1.3.22.18.16.2.16.1.14.12.22-.02.38-.16.36-.16.2-.16.18-.22.22-.32.34-1.11,1.11-.58.62-.2.22-.3.26-.34.36-.32.32-.18.26-.06.26.14.3.12.18.22.3.24.38.18.22.18.24.16.18.16.24.16.22.18.24.18.22.24.26.28.38.2.32.14.2.16.18.14.22.22.3.22.28.08.14.18.22.28.38.38.48.32.48.12.42-.1.3-.14.18-.34.3-.42.3-.38.14-.32-.02Z"/>
  <path class="cls-2" d="M106.31,32.2h-.34l-.3-.02-.4-.06h-.5l-.36-.08-.2-.06-.26-.06-.36-.14-.48-.18-.4-.22-.2-.1-.22-.14-.26-.14-.18-.14-.2-.12-.28-.26-.34-.3-.22-.22-.71-.85-.28-.54-.24-.44-.26-.46-.12-.44-.1-.26-.1-.48-.08-.4-.02-.24-.06-.34-.02-.28.02-.34v-.58l.06-.38.04-.36.16-.5.06-.32.16-.46.2-.52.18-.28.2-.44.38-.6.34-.46.2-.18.14-.18.2-.22.2-.2.16-.08.22-.22.54-.3.48-.24.56-.26.42-.12.26-.12.54-.18.5-.08.32-.06.48.02.7-.02.48.04h.22l.36.06.4.1.26.06.18.08.3.1.28.1.28.14.32.18.42.22.56.36.42.34.42.4.5.6.32.38.14.2.12.24.14.2.18.36.2.46.12.4.1.32.04.18.08.26.1.5.04.32v.28l.02.32-.04.34-.04.52-.04.32-.02.32-.06.4-.06.24-.08.34-.18.48-.16.44-.18.38-.14.24-.1.2-.16.2-.14.18-.12.18-.08.14-.12.14-.22.22-.26.2-.18.18-.14.12-.18.14-.16.14-.2.12-.14.12-.24.16-.4.22-.44.26-.34.14-.22.08-.42.14-.5.14-.42.06h-.58l-.46-.04ZM106.99,29.89l.26-.02.12-.02.1-.06.08-.04.26-.04.26-.12.24-.08.38-.2.4-.26.52-.38.3-.32.1-.12.16-.24.3-.38.4-.6.12-.44.08-.38.06-.44.04-.54.04-.28-.04-.52-.14-.72-.14-.46-.2-.42-.1-.34-.12-.22-.16-.32-.24-.3-.14-.18-.22-.22-.68-.54-.64-.38-.38-.16-.42-.12-.16-.04-.26-.08-.34-.08h-1.09l-.3.06-.36.04-.46.14-.66.28-1.11.64-.2.22-.16.2-.12.1-.24.34-.18.34-.1.14-.08.22-.14.26-.12.32-.1.32-.04.28-.1.44-.04.5.02.24.02.28.04.32v.3l.02.1.06.22.08.36.06.3.24.44.48.72.38.48.14.16.32.28.4.26.14.08.08.04.36.2.42.2.34.1.56.1.56.08.48.02.58-.06Z"/>
  <path class="cls-2" d="M122.31,32.34l-.38.02-.46-.02-.38-.08-.93-.16-.26-.1-.64-.22-.2-.1-.22-.12-.2-.1-.12-.1-.28-.14-.24-.18-.24-.14-.22-.22-.1-.08-.22-.2-.22-.24-.28-.3-.24-.32-.14-.16-.16-.2-.14-.22-.2-.34-.18-.36-.12-.26-.14-.34-.18-.36-.06-.26-.1-.28-.02-.26-.06-.2-.02-.34-.06-.3-.02-.46-.02-.34v-.6l.1-.36.04-.22.12-.48.16-.62.2-.46.12-.32.12-.24.18-.3.06-.16.04-.06.16-.22.28-.36.3-.38.28-.32.26-.26.4-.32.5-.34.4-.28.6-.32.34-.14.3-.1.32-.1.26-.06.56-.14.32-.06.18-.02.4-.02.42-.04h.44l.44.06.16.04.4.04.42.12.58.18.54.2.14.08.36.2.46.22.42.32.38.28.28.22.32.3.28.34.24.36.1.26-.02.32-.18.32-.2.26-.32.32-.26.14-.34.04-.3-.06-.24-.18-.32-.32-.32-.28-.24-.28-.32-.24-.22-.16-.36-.18-.34-.18-.34-.08-.5-.14-.36-.08h-.44l-.48-.06-.52.08-.36.06-.38.1-.38.12-.42.2-.5.28-.26.16-.2.18-.3.26-.24.24-.22.28-.32.42-.3.64-.26.66-.06.32-.04.28-.04.42v.46l.08.5.06.52.1.34.06.34.12.34.12.16.1.22.08.22.04.08.16.18.24.36.2.24.18.18.28.22.32.28.24.14.42.22.4.2.28.08.38.08.58.1.36.02.67-.04.56-.08.44-.1.42-.14.3-.12.32-.18.4-.28.36-.28.58-.58.2-.22.3-.14.38-.04.6.22.5.54.12.32-.02.24-.1.34-.22.36-.24.24-.34.36-.95.66-.34.18-.16.12-1.09.5-.26.06-.3.08-.26.06-.28.08-.58.04-.42.06-.4-.04Z"/>
  <path class="cls-2" d="M131.27,31.9l-.42-.18-.14-.22-.08-.28-.02-.4.02-.32-.02-.42v-.54l-.02-.3.02-.32-.02-.58v-.34l.06-.72v-.87l-.02-.3-.02-.2v-.46l.02-.48v-.56l-.02-.32v-.54l-.02-.5v-1.43l-.02-.72v-.4l.02-.44-.02-.48v-.54l.04-.6.14-.24.1-.1.3-.2.5-.06h.36l.28.06.22.06.14.12.12.18.06.16.04.24.04.32v.56l.02.62v.42l-.02.38v.89l.02.36.02.38v.24l-.02.2.04.24.04.12.16.08.36.02.58.02h.36l.72.02.5-.02h1.57l.58-.02.4.02.58-.02.5.02.34-.04.2-.06.08-.16.08-.26.04-.34v-.91l-.02-.58.02-.3v-1.97l.06-.36.06-.2.1-.16.26-.22.38-.08.34.02h.4l.34.1.28.24.1.42.04.28.04.38-.04.42v.52l.02.6.02.68-.02.58-.02.62v.4l.02.54-.04.32.02.38-.02.54.02.68.04.64-.04.54.02.48v.3l-.02.26-.02.44.04.38.02.26v.3l-.02.28.02.34-.04.3.02.22v.28l-.04.44-.08.44-.24.32-.3.12-.54.06-.56-.04-.2-.08-.26-.2-.12-.3-.04-.28.02-.7v-3.7l-.02-.52-.16-.24-.32-.04-.99-.04-.52.02-.75-.06-.77.02-.7-.02-.48.04h-.36l-.6.02h-.54l-.34.02-.14.04-.32.28-.08.48v1.77l-.02.28-.02.32.04.36.02.54v.42l.02.3-.02.38-.04.36-.14.2-.18.14-.38.16-.36.08h-.24l-.38-.06Z"/>
</svg>