<?xml version="1.0" encoding="UTF-8"?>
<svg id="Layer_1" data-name="Layer 1" xmlns="http://www.w3.org/2000/svg" viewBox="0 0 150 50.12">
  <defs>
    <style>
      .cls-1 {
        fill: #1e1e1c;
        stroke-width: 0px;
      }

      .cls-2, .cls-3 {
        isolation: isolate;
      }

      .cls-3 {
        fill: #fefffe;
        font-family: Macula-Line, Macula;
        font-size: 26.04px;
      }
    </style>
  </defs>
  <g class="cls-2">
    <g>
      <path class="cls-1" d="M22.26,9.04l2.42-2.16v9.66c0,3.57-2.16,5.86-5.7,5.86s-6.1-2.19-6.2-5.63l2.01-1.8c.18,4.12,2.27,5.16,4.17,5.16s3.31-1.33,3.31-3.83v-7.27ZM15.02,6.23l2.42-2.16v1.82l-2.42,2.16v-1.82ZM18.95,19.44c-1.54,0-3.36-.83-3.46-4.69h2.5c.05,1.85.7,3.57,2.45,4.3-.42.26-.91.39-1.48.39ZM15.59,8.5l2.32-2.08h6.23l-2.34,2.08h-6.2ZM25.38,5.71h-7.24v-2.08h9.66v12.92c0,3.49-2.32,5.83-5.76,5.91,2.11-1.02,3.33-3.12,3.33-5.91V5.71Z"/>
      <path class="cls-1" d="M41.92,14.75l1.22,2.08h-8.65l-1.64,2.79h-2.66l9.27-15.99h2.66l-6.43,11.12h6.23ZM30.22,20.32h2.76l1.43,2.08h-2.76l-1.43-2.08ZM33.58,19.91l1.17-2.06,1.43,2.06-1.2,2.06-1.41-2.06ZM44.39,17.54l-2.97-5.16,1.3-2.27,7.14,12.29h-2.66l-1.61-2.79h-8.73l-1.46-2.08h8.99ZM39.57,14.05h-2.6l5.78-9.98,9.22,15.91-1.46,2.08-7.79-13.41-3.15,5.39Z"/>
      <path class="cls-1" d="M61.97,3.63c3.13,0,6.23,2.24,7.48,5.63l-1.98,1.8c-.73-3.23-3.1-5.18-5.5-5.18-3.39,0-6.17,3.2-6.17,7.58s2.37,7.68,5.47,8.99c-3.93-.26-7.89-3.36-7.89-9.17,0-5.31,3.52-9.64,8.6-9.64ZM64.62,20.17c2.89,0,5.24-1.88,5.99-5.26l2.01,1.8c-1.35,3.7-4.48,5.7-7.89,5.7-4.45,0-8.23-3.33-8.23-8.96,0-4.14,2.6-6.88,5.5-6.88.68,0,1.41.18,2.06.57-2.89.37-5.13,2.79-5.13,6.49,0,4.19,3.02,6.54,5.7,6.54ZM62.51,18.92c2.81-.31,4.43-2.4,4.9-4.17h2.55c-.62,3.02-2.76,4.71-5.34,4.71-.73,0-1.43-.18-2.11-.55ZM72.49,8.99h-2.42c-1.02-2.71-2.94-4.51-5.03-5.39,3.05.13,6.1,1.95,7.45,5.39ZM70.3,11.29h-2.03l1.77-1.59h2.03l-1.77,1.59Z"/>
      <path class="cls-1" d="M83.71,22.41c-4.92,0-8.6-4.12-8.6-9.66s3.78-8.93,7.94-9.14c-3.1,1.3-5.52,4.45-5.52,8.99s2.76,7.58,6.17,7.58c2.97,0,5.73-2.34,5.73-6.54,0-3.75-2.34-6.2-5.29-6.51.68-.34,1.43-.55,2.21-.55,3,0,5.5,2.87,5.5,6.88,0,5.63-3.78,8.96-8.15,8.96ZM86.47,3.63c4.35,0,8.52,3.49,8.52,9.66,0,5.52-3.72,8.91-7.92,9.17,3.2-1.35,5.5-4.61,5.5-9.01s-2.76-7.58-6.2-7.58c-2.94,0-5.71,2.34-5.71,6.54,0,3.75,2.32,6.22,5.26,6.51-.68.36-1.41.55-2.19.55-3,0-5.5-2.87-5.5-6.88,0-5.63,3.78-8.96,8.23-8.96Z"/>
      <path class="cls-1" d="M107.59,10.58c.68,0,1.09-.52,1.09-1.04,0-.44-.36-1.04-1.09-1.04h-3.39l-2.34-2.08h5.78c2.11,0,3.46,1.22,3.46,3.02,0,.91-.42,1.72-1.02,2.24,1.04.68,1.77,1.98,1.77,3.57,0,2.71-1.72,4.4-4.77,4.4h-8.93V3.63h10c3.62,0,6.09,2.34,6.09,5.78,0,1.2-.34,2.47-1.35,3.57l-1.75-1.54c.39-.57.65-1.3.65-2.01,0-2.37-1.85-3.72-4.22-3.72h-7.01v4.87h7.01ZM108.06,22.43h-6.98l-2.34-2.08h8.47c3.1,0,5.37-1.75,5.37-5.08,0-.68-.18-1.38-.47-2.01l.89.76c1.25,1.12,1.72,2.29,1.72,3.62,0,2.5-2.37,4.79-6.64,4.79ZM100.58,17.56h6.36c1.59,0,2.5-1.12,2.5-2.45,0-1.41-1.07-2.45-2.5-2.45h-6.36v4.9ZM101.29,6.86l2.42,2.19v.83h-2.42v-3.02ZM101.29,16.86v-3.05l2.42,2.19v.86h-2.42ZM106.99,13.37c.99,0,1.75.68,1.75,1.75,0,.13-.03.23-.03.34h-4.51l-2.34-2.08h5.13Z"/>
    </g>
    <text class="cls-3" transform="translate(67.48 23.11)"><tspan x="0" y="0"> </tspan></text>
    <g>
      <path class="cls-1" d="M58.92,42.03h-2.42v-15.99h2.42v7.45l8.26-7.45h3.57l-11.83,10.65v5.34ZM57.07,42.74h2.06l2.32,2.08h-2.03l-2.34-2.08ZM62.04,28.65v1.07l-2.42,2.19v-5.42l2.42,2.16ZM62.04,44.38l-2.42-2.16v-4.69l2.42,2.19v4.66ZM59.88,36.8l11.8-10.65,1.82,1.62-10.05,9.04,8.88,8.02h-3.57l-8.88-8.02ZM73.04,41.25v3.23l-8.52-7.68,1.77-1.59,6.75,6.04Z"/>
      <path class="cls-1" d="M83.48,44.82c-4.92,0-8.6-4.12-8.6-9.66s3.78-8.93,7.94-9.14c-3.1,1.3-5.52,4.45-5.52,8.99s2.76,7.58,6.17,7.58c2.97,0,5.73-2.34,5.73-6.54,0-3.75-2.34-6.2-5.29-6.51.68-.34,1.43-.55,2.21-.55,3,0,5.5,2.87,5.5,6.88,0,5.63-3.78,8.96-8.15,8.96ZM86.24,26.04c4.35,0,8.52,3.49,8.52,9.66,0,5.52-3.72,8.91-7.92,9.17,3.2-1.35,5.5-4.61,5.5-9.01s-2.76-7.58-6.2-7.58c-2.94,0-5.71,2.34-5.71,6.54,0,3.75,2.32,6.22,5.26,6.51-.68.36-1.41.55-2.19.55-3,0-5.5-2.87-5.5-6.88,0-5.63,3.78-8.96,8.23-8.96Z"/>
      <path class="cls-1" d="M105.79,26.04c3.12,0,6.22,2.24,7.47,5.63l-1.98,1.8c-.73-3.23-3.1-5.18-5.5-5.18-3.39,0-6.17,3.2-6.17,7.58s2.37,7.68,5.47,8.99c-3.93-.26-7.89-3.36-7.89-9.17,0-5.31,3.52-9.64,8.6-9.64ZM108.45,42.58c2.89,0,5.24-1.88,5.99-5.26l2,1.8c-1.35,3.7-4.48,5.7-7.89,5.7-4.45,0-8.23-3.33-8.23-8.96,0-4.14,2.61-6.88,5.5-6.88.68,0,1.41.18,2.06.57-2.89.37-5.13,2.79-5.13,6.49,0,4.19,3.02,6.54,5.7,6.54ZM106.34,41.33c2.81-.31,4.43-2.4,4.9-4.17h2.55c-.62,3.02-2.76,4.71-5.34,4.71-.73,0-1.43-.18-2.11-.55ZM116.32,31.41h-2.42c-1.02-2.71-2.94-4.51-5.03-5.39,3.05.13,6.09,1.95,7.45,5.39ZM114.13,33.7h-2.03l1.77-1.59h2.03l-1.77,1.59Z"/>
      <path class="cls-1" d="M131.68,35.78v-7.14l2.42-2.16v15.73l-2.42,2.16v-6.51h-9.58v6.96h-2.42v-15.99h2.42v6.96h9.58ZM122.59,26.04h2.03l-2.32,2.08h-2.06l2.34-2.08ZM122.8,28.65l2.42-2.16v5.99l-2.42,2.16v-5.99ZM122.8,44.38v-5.81h2.42v3.65l-2.42,2.16ZM125.71,33h5.26v2.08h-7.61l2.34-2.08ZM134.59,42.74h2.06l-2.34,2.08h-2.03l2.32-2.08ZM134.8,26.04h2.42v15.99h-2.42v-15.99Z"/>
    </g>
  </g>
</svg>