<?xml version="1.0" encoding="UTF-8"?>
<svg id="Layer_1" data-name="Layer 1" xmlns="http://www.w3.org/2000/svg" version="1.1" viewBox="0 0 150 50">
  <defs>
    <style>
      .cls-1 {
        fill: #1e1e1c;
      }

      .cls-1, .cls-2, .cls-3, .cls-4 {
        stroke-width: 0px;
      }

      .cls-2 {
        fill: #000;
      }

      .cls-5, .cls-6 {
        isolation: isolate;
      }

      .cls-5, .cls-7 {
        display: none;
      }

      .cls-3 {
        fill: #42d669;
      }

      .cls-4, .cls-6 {
        fill: #fefffe;
      }

      .cls-6 {
        font-family: Macula-Line, Macula;
        font-size: 26px;
      }
    </style>
  </defs>
  <g class="cls-7">
    <rect class="cls-1" width="150" height="50"/>
  </g>
  <g class="cls-5">
    <g class="cls-7">
      <rect class="cls-4" x="-217.9" y="-275.8" width="546" height="593"/>
      <path class="cls-2" d="M327.6-275.3V316.7H-217.4V-275.3H327.6M328.6-276.3H-218.4V317.7H328.6V-276.3h0Z"/>
    </g>
    <g>
      <path class="cls-4" d="M22.3,8.9l2.4-2.2v9.7c0,3.6-2.2,5.9-5.7,5.9s-6.1-2.2-6.2-5.6l2-1.8c.2,4.1,2.3,5.2,4.2,5.2s3.3-1.3,3.3-3.8v-7.3ZM15,6.1l2.4-2.2v1.8l-2.4,2.2v-1.8ZM18.9,19.3c-1.5,0-3.4-.8-3.5-4.7h2.5c0,1.8.7,3.6,2.4,4.3-.4.3-.9.4-1.5.4ZM15.6,8.4l2.3-2.1h6.2l-2.3,2.1h-6.2ZM25.4,5.6h-7.2v-2.1h9.7v12.9c0,3.5-2.3,5.8-5.8,5.9,2.1-1,3.3-3.1,3.3-5.9V5.6Z"/>
      <path class="cls-4" d="M41.9,14.6l1.2,2.1h-8.6l-1.6,2.8h-2.7l9.3-16h2.7l-6.4,11.1h6.2ZM30.2,20.2h2.8l1.4,2.1h-2.8l-1.4-2.1ZM33.6,19.8l1.2-2.1,1.4,2.1-1.2,2.1-1.4-2.1ZM44.4,17.4l-3-5.2,1.3-2.3,7.1,12.3h-2.7l-1.6-2.8h-8.7l-1.5-2.1h9ZM39.6,13.9h-2.6l5.8-10,9.2,15.9-1.5,2.1-7.8-13.4-3.2,5.4Z"/>
      <path class="cls-4" d="M62,3.5c3.1,0,6.2,2.2,7.5,5.6l-2,1.8c-.7-3.2-3.1-5.2-5.5-5.2s-6.2,3.2-6.2,7.6,2.4,7.7,5.5,9c-3.9-.3-7.9-3.4-7.9-9.2s3.5-9.6,8.6-9.6ZM64.6,20c2.9,0,5.2-1.9,6-5.3l2,1.8c-1.4,3.7-4.5,5.7-7.9,5.7s-8.2-3.3-8.2-9,2.6-6.9,5.5-6.9,1.4.2,2.1.6c-2.9.4-5.1,2.8-5.1,6.5s3,6.5,5.7,6.5ZM62.5,18.8c2.8-.3,4.4-2.4,4.9-4.2h2.6c-.6,3-2.8,4.7-5.3,4.7s-1.4-.2-2.1-.5ZM72.5,8.9h-2.4c-1-2.7-2.9-4.5-5-5.4,3,.1,6.1,2,7.4,5.4ZM70.3,11.2h-2l1.8-1.6h2l-1.8,1.6Z"/>
      <path class="cls-4" d="M83.7,22.3c-4.9,0-8.6-4.1-8.6-9.7s3.8-8.9,7.9-9.1c-3.1,1.3-5.5,4.5-5.5,9s2.8,7.6,6.2,7.6,5.7-2.3,5.7-6.5-2.3-6.2-5.3-6.5c.7-.3,1.4-.5,2.2-.5,3,0,5.5,2.9,5.5,6.9s-3.8,9-8.2,9ZM86.5,3.5c4.3,0,8.5,3.5,8.5,9.7s-3.7,8.9-7.9,9.2c3.2-1.4,5.5-4.6,5.5-9s-2.8-7.6-6.2-7.6-5.7,2.3-5.7,6.5,2.3,6.2,5.3,6.5c-.7.4-1.4.5-2.2.5-3,0-5.5-2.9-5.5-6.9s3.8-9,8.2-9Z"/>
      <path class="cls-4" d="M107.6,10.5c.7,0,1.1-.5,1.1-1s-.4-1-1.1-1h-3.4l-2.3-2.1h5.8c2.1,0,3.5,1.2,3.5,3s-.4,1.7-1,2.2c1,.7,1.8,2,1.8,3.6,0,2.7-1.7,4.4-4.8,4.4h-8.9V3.5h10c3.6,0,6.1,2.3,6.1,5.8s-.3,2.5-1.4,3.6l-1.7-1.5c.4-.6.7-1.3.7-2,0-2.4-1.8-3.7-4.2-3.7h-7v4.9h7ZM108.1,22.3h-7l-2.3-2.1h8.5c3.1,0,5.4-1.7,5.4-5.1s-.2-1.4-.5-2l.9.8c1.2,1.1,1.7,2.3,1.7,3.6,0,2.5-2.4,4.8-6.6,4.8ZM100.6,17.4h6.4c1.6,0,2.5-1.1,2.5-2.4s-1.1-2.4-2.5-2.4h-6.4v4.9ZM101.3,6.7l2.4,2.2v.8h-2.4v-3ZM101.3,16.7v-3l2.4,2.2v.9h-2.4ZM107,13.2c1,0,1.7.7,1.7,1.7s0,.2,0,.3h-4.5l-2.3-2.1h5.1Z"/>
    </g>
    <text class="cls-6" transform="translate(67.5 23)"><tspan x="0" y="0"> </tspan></text>
    <g>
      <path class="cls-4" d="M58.9,41.9h-2.4v-16h2.4v7.5l8.3-7.5h3.6l-11.8,10.7v5.3ZM57.1,42.6h2.1l2.3,2.1h-2l-2.3-2.1ZM62,28.5v1.1l-2.4,2.2v-5.4l2.4,2.2ZM62,44.3l-2.4-2.2v-4.7l2.4,2.2v4.7ZM59.9,36.7l11.8-10.7,1.8,1.6-10.1,9,8.9,8h-3.6l-8.9-8ZM73,41.1v3.2l-8.5-7.7,1.8-1.6,6.7,6Z"/>
      <path class="cls-4" d="M83.5,44.7c-4.9,0-8.6-4.1-8.6-9.7s3.8-8.9,7.9-9.1c-3.1,1.3-5.5,4.5-5.5,9s2.8,7.6,6.2,7.6,5.7-2.3,5.7-6.5-2.3-6.2-5.3-6.5c.7-.3,1.4-.5,2.2-.5,3,0,5.5,2.9,5.5,6.9s-3.8,9-8.2,9ZM86.2,25.9c4.3,0,8.5,3.5,8.5,9.7s-3.7,8.9-7.9,9.2c3.2-1.4,5.5-4.6,5.5-9s-2.8-7.6-6.2-7.6-5.7,2.3-5.7,6.5,2.3,6.2,5.3,6.5c-.7.4-1.4.5-2.2.5-3,0-5.5-2.9-5.5-6.9s3.8-9,8.2-9Z"/>
      <path class="cls-4" d="M105.8,25.9c3.1,0,6.2,2.2,7.5,5.6l-2,1.8c-.7-3.2-3.1-5.2-5.5-5.2s-6.2,3.2-6.2,7.6,2.4,7.7,5.5,9c-3.9-.3-7.9-3.4-7.9-9.2s3.5-9.6,8.6-9.6ZM108.4,42.5c2.9,0,5.2-1.9,6-5.3l2,1.8c-1.4,3.7-4.5,5.7-7.9,5.7s-8.2-3.3-8.2-9,2.6-6.9,5.5-6.9,1.4.2,2.1.6c-2.9.4-5.1,2.8-5.1,6.5s3,6.5,5.7,6.5ZM106.3,41.2c2.8-.3,4.4-2.4,4.9-4.2h2.6c-.6,3-2.8,4.7-5.3,4.7s-1.4-.2-2.1-.5ZM116.3,31.3h-2.4c-1-2.7-2.9-4.5-5-5.4,3,.1,6.1,2,7.4,5.4ZM114.1,33.6h-2l1.8-1.6h2l-1.8,1.6Z"/>
      <path class="cls-4" d="M131.7,35.7v-7.1l2.4-2.2v15.7l-2.4,2.2v-6.5h-9.6v7h-2.4v-16h2.4v7h9.6ZM122.6,25.9h2l-2.3,2.1h-2.1l2.3-2.1ZM122.8,28.5l2.4-2.2v6l-2.4,2.2v-6ZM122.8,44.3v-5.8h2.4v3.6l-2.4,2.2ZM125.7,32.9h5.3v2.1h-7.6l2.3-2.1ZM134.6,42.6h2.1l-2.3,2.1h-2l2.3-2.1ZM134.8,25.9h2.4v16h-2.4v-16Z"/>
    </g>
  </g>
  <g>
    <path class="cls-3" d="M11.7,32.2h-.1s-.3,0-.3,0h-.7c0-.1-.6-.3-.6-.3h-.3c0-.1-.4-.3-.4-.3l-.4-.2-.3-.3-.4-.3-.2-.3-.2-.3-.2-.4-.2-.6v-.4c-.1,0-.2-.4-.2-.4v-.4c0,0-.1-.3-.1-.3v-.3s0-.2,0-.2v-.9s0-.4,0-.4v-.3c.1,0,.4-.2.4-.2h.3c0-.1.3-.2.3-.2h.6s.3.1.3.1l.3.2v.3c.1,0,.2.4.2.4v.6s0,.5,0,.5h0c0,.1,0,.4,0,.4v.3c0,0,.2.3.2.3l.4.5.4.4.3.2.5.2h.6c0,0,.4.1.4.1h.2s.2,0,.2,0h.4c0,0,.6-.2.6-.2h.3c0-.1.3-.3.3-.3l.4-.4.3-.6v-.4c0,0,.1-.2.1-.2v-.3c0,0,0-.4,0-.4v-.5s0-.2,0-.2v-.3s0-.3,0-.3v-1s0-.3,0-.3v-.2s0-.9,0-.9h0v-.7h0v-1.2s0-1.1,0-1.1v-.4s0-.4,0-.4v-.6s0-.7,0-.7l.2-.4.3-.2h.6c0,0,.7,0,.7,0l.4.2v.2c.1,0,.2.2.2.2v.5s0,.4,0,.4h0v.8s0,.3,0,.3v.3s0,1.2,0,1.2v.4s0,.4,0,.4v1.1s0,.3,0,.3v.4s0,.8,0,.8v.7s0,.4,0,.4v.6s0,.3,0,.3v.3s0,.4,0,.4v.4s0,.4,0,.4v.3c-.1,0-.2.2-.2.2v.3c0,0-.2.4-.2.4l-.2.3-.2.3-.2.2-.2.3-.4.3-.3.2h-.2c0,.1-.4.3-.4.3h-.4c0,.1-.2.2-.2.2h-.4c0,.1-.3.2-.3.2h-.7c0,0-.2.1-.2.1h-.9Z"/>
    <path class="cls-3" d="M20.9,32h-.3c0,0-.4-.2-.4-.2l-.3-.2-.2-.2v-.2c0,0,0-.4,0-.4l.2-.4v-.3c.1,0,.2-.2.2-.2v-.2c.1,0,.3-.4.3-.4v-.3c.1,0,.5-.8.5-.8l.2-.4.2-.5.3-.6.2-.5v-.3c.1,0,.3-.3.3-.3l.2-.3.3-.7.2-.4.2-.4.3-.6.3-.7.2-.4.3-.8.2-.5v-.3c0,0,.3-.3.3-.3v-.3c.1,0,.2-.2.2-.2v-.2c0,0,.2-.3.2-.3v-.2c.1,0,.3-.2.3-.2v-.2c.1,0,.2-.2.2-.2v-.2c.1,0,.4-.2.4-.2h.5c0,0,.5,0,.5,0h.3c0,0,.2.3.2.3v.3c.1,0,.3.2.3.2l.2.5.2.4.4.7v.3c.1,0,.3.3.3.3v.4c.1,0,.3.4.3.4v.3c0,0,.2.3.2.3l.2.5.2.4v.4c.1,0,.3.2.3.2v.2c0,0,.2.3.2.3l.2.3v.3c.1,0,.2.3.2.3v.2c.1,0,.2.3.2.3l.2.4.2.4.3.6.4.7.2.5v.3c.1,0,.2.2.2.2v.3c0,0,.3.5.3.5l.2.4v.2c0,0,.3.4.3.4v.4c.1,0,.2.3.2.3v.4c0,0-.3.3-.3.3l-.4.2-.7.2h-.5c0,0-.2-.3-.2-.3l-.2-.2v-.3c0,0-.2-.4-.2-.4l-.2-.5v-.2c-.1,0-.3-.4-.3-.4l-.2-.5v-.2c0,0-.2-.2-.2-.2l-.2-.3v-.3c-.1,0-.3-.1-.3-.1h-.4s-.5,0-.5,0h-3s-.5,0-.5,0h-.3s-.3,0-.3,0h-.3s-.3.2-.3.2v.2c-.1,0-.5.8-.5.8l-.2.4v.2c0,0-.2.2-.2.2v.3c-.1,0-.3.3-.3.3v.3c0,0-.3.3-.3.3l-.2.4-.2.2h-.3c0,0-.3,0-.3,0ZM28,26h0s0,0,0,0v-.2c0,0,0-.4,0-.4v-.3c-.1,0-.6-.8-.6-.8l-.2-.4-.3-.6-.2-.4v-.4c-.1,0-.4-.5-.4-.5l-.2-.2-.2.3-.2.5-.3.8-.3.5-.2.5-.2.4-.2.4v.2s0,.2,0,.2v.2h.1c0,.1.3.2.3.2h.9s1.3,0,1.3,0h.5Z"/>
    <path class="cls-3" d="M41.6,32.2h-.4s-.5,0-.5,0h-.4c0,0-.9-.2-.9-.2h-.3c0,0-.6-.3-.6-.3h-.2c0,0-.2-.2-.2-.2h-.2c0,0-.1-.2-.1-.2h-.3c0-.1-.2-.3-.2-.3h-.2c0-.1-.2-.4-.2-.4h0c0,0-.2-.3-.2-.3l-.2-.2-.3-.3-.2-.3v-.2c-.1,0-.3-.2-.3-.2v-.2c-.1,0-.3-.3-.3-.3l-.2-.4v-.3c-.1,0-.3-.3-.3-.3l-.2-.4v-.3c0,0-.2-.3-.2-.3v-.3s0-.2,0-.2v-.3s0-.3,0-.3v-.5s0-.3,0-.3v-1c0,0,.1-.2.1-.2v-.5c.1,0,.3-.6.3-.6l.2-.5v-.3c.1,0,.2-.2.2-.2l.2-.3v-.2c0,0,0,0,0,0l.2-.2.3-.4.3-.4.3-.3.3-.3.4-.3.5-.3.4-.3.6-.3h.3c0-.1.3-.2.3-.2h.3c0,0,.3-.2.3-.2h.6c0-.1.3-.2.3-.2h.2s.4,0,.4,0h.4s.4,0,.4,0h.4c0,0,.2,0,.2,0h.4s.4.2.4.2l.6.2.5.2h.1c0,0,.4.3.4.3l.5.2.4.3.4.3.3.2.3.3.3.3.2.4v.3c0,0,0,.3,0,.3l-.2.3-.2.3-.3.3h-.3c0,.1-.3.2-.3.2h-.3c0,0-.2-.2-.2-.2l-.3-.3-.3-.3-.2-.3-.3-.2-.2-.2-.4-.2-.3-.2h-.3c0,0-.5-.2-.5-.2h-.4c0,0-.4,0-.4,0h-.5c0,0-.5,0-.5,0h-.4c0,0-.4.2-.4.2h-.4c0,.1-.4.3-.4.3l-.5.3-.3.2-.2.2-.3.3-.2.2-.2.3-.3.4-.3.6-.3.7v.3c0,0,0,.3,0,.3v.4s0,.5,0,.5v.5c0,0,.1.5.1.5v.3c0,0,.2.3.2.3v.3c.1,0,.2.2.2.2v.2c0,0,.2.2.2.2h0c0,0,.2.3.2.3l.2.4.2.2.2.2.3.2.3.3h.2c0,.1.4.4.4.4l.4.2h.3c0,0,.4.2.4.2h.6c0,0,.4.1.4.1h.7s.6-.1.6-.1h.4c0,0,.4-.2.4-.2h.3c0-.1.3-.3.3-.3l.4-.3.4-.3.6-.6.2-.2h.3c0-.1.4-.2.4-.2l.6.2.5.5v.3c.1,0,0,.2,0,.2v.3c0,0-.3.4-.3.4l-.2.2-.3.4-1,.7-.3.2h-.2c0,.1-1.1.6-1.1.6h-.3c0,0-.3.1-.3.1h-.3c0,0-.3.1-.3.1h-.6s-.4,0-.4,0h-.4Z"/>
    <path class="cls-3" d="M56.3,32.1h-.6s-.4,0-.4,0h-.9c0,0-.2-.1-.2-.1h-.3c0,0-.4-.2-.4-.2l-.5-.2-.4-.2h-.2c0,0-.2-.2-.2-.2h-.3c0-.1-.2-.3-.2-.3h-.2c0-.1-.3-.4-.3-.4l-.3-.3-.2-.2-.7-.9-.3-.5-.2-.4-.3-.5v-.4c-.1,0-.2-.3-.2-.3v-.5c0,0-.2-.4-.2-.4v-.2s0-.3,0-.3v-.3s0-.3,0-.3v-1c0,0,0-.4,0-.4l.2-.5v-.3c0,0,.2-.5.2-.5l.2-.5.2-.3.2-.4.4-.6.3-.5.2-.2v-.2c.1,0,.3-.2.3-.2l.2-.2h.2c0,0,.2-.3.2-.3l.5-.3.5-.2.6-.3h.4c0-.1.3-.2.3-.2l.5-.2h.5c0,0,.3-.1.3-.1h.5s.7,0,.7,0h.5s.2,0,.2,0h.4c0,0,.4.2.4.2h.3c0,0,.2.1.2.1h.3c0,0,.3.2.3.2h.3c0,.1.3.3.3.3l.4.2.6.4.4.3.4.4.5.6.3.4v.2c.1,0,.3.2.3.2v.2c.1,0,.3.4.3.4l.2.5v.4c.1,0,.2.3.2.3v.2s.1.3.1.3v.5c0,0,.1.3.1.3v.6s0,.3,0,.3v.5s0,.3,0,.3v.3s0,.4,0,.4v.2c0,0-.1.3-.1.3l-.2.5-.2.4-.2.4v.2c-.1,0-.2.2-.2.2l-.2.2v.2c-.1,0-.3.2-.3.2h0c0,.1-.1.3-.1.3l-.2.2-.3.2-.2.2h-.1c0,.1-.2.3-.2.3h-.2c0,.1-.2.3-.2.3h-.1c0,.1-.2.3-.2.3l-.4.2-.4.3h-.3c0,.1-.2.2-.2.2h-.4c0,.1-.5.3-.5.3h-.4c0,0-.6,0-.6,0h-.5ZM57,29.8h.3s.1,0,.1,0h0c0,0,0,0,0,0h.3s.3-.2.3-.2h.2c0,0,.4-.3.4-.3l.4-.3.5-.4.3-.3h0c0-.1.2-.4.2-.4l.3-.4.4-.6v-.4c.1,0,.2-.4.2-.4v-.4c0,0,0-.5,0-.5v-.3s0-.5,0-.5v-.7c-.1,0-.3-.5-.3-.5l-.2-.4v-.3c0,0-.2-.2-.2-.2l-.2-.3-.2-.3v-.2c-.1,0-.4-.2-.4-.2l-.7-.5-.6-.4-.4-.2h-.4c0-.1-.2-.2-.2-.2h-.3c0,0-.3-.2-.3-.2h-1.4c0,0-.4,0-.4,0h-.5c0,.1-.7.4-.7.4l-1.1.6-.2.2-.2.2h-.1c0,0-.2.4-.2.4l-.2.3h0c0,.1,0,.4,0,.4v.3c-.1,0-.3.3-.3.3v.3c0,0-.1.3-.1.3v.4c0,0-.1.5-.1.5v.2s0,.3,0,.3v.3s0,.3,0,.3h0c0,0,0,.3,0,.3v.4c0,0,.1.3.1.3l.2.4.5.7.4.5v.2c.1,0,.5.3.5.3l.4.3h.1c0,0,0,.1,0,.1l.4.2.4.2h.3c0,0,.6.2.6.2h.6c0,0,.5,0,.5,0h.6Z"/>
    <path class="cls-3" d="M70.7,31.9h-.5s-.4,0-.4,0h-.6s-.8,0-.8,0h-.2s-.4,0-.4,0h-.7s-.4,0-.4,0h-.2s-.2-.2-.2-.2l-.2-.3v-.6c0,0,0-.6,0-.6v-.7s0-.5,0-.5v-.5s0-.7,0-.7v-2s0-.4,0-.4v-.6s0-.6,0-.6v-.4s0-.6,0-.6v-1s0-.5,0-.5v-.6s0-.5,0-.5v-.4s0-.8,0-.8v-.4s0-.3,0-.3v-.4c.1,0,.5-.3.5-.3h.4c0,0,.4,0,.4,0h.3s.8,0,.8,0h1s.2,0,.2,0h1s.3,0,.3,0h.6s.3,0,.3,0h2.2c0,0,.5.2.5.2h.3c0,0,.9.5.9.5l.2.2.2.2.2.2.2.4.3.6.2.6v.3c0,0,0,.8,0,.8v.3s-.2.6-.2.6l-.2.6-.2.3-.3.4-.2.3h0c0,.1.3.3.3.3l.3.3.3.4.2.5.2.6v.4c0,0,.2.4.2.4v.4s0,.5,0,.5l-.2.6v.3c0,0-.2.4-.2.4l-.2.4-.2.2-.2.3-.4.3-.5.3-.4.2h-.3c0,0-.5.2-.5.2h-.5c0,0-.3.1-.3.1h-.3s-.2,0-.2,0h-.3s-.4,0-.4,0h-.5s-.5,0-.5,0h-.8ZM71.3,23.5h.9s.3,0,.3,0h.4s.7-.1.7-.1h.4c0-.1.4-.4.4-.4l.2-.3.2-.3v-.4c0,0,0-.5,0-.5v-.3c0,0-.2-.3-.2-.3l-.2-.2-.4-.3-.5-.2h-.6s-1,0-1,0h-.8s-.5,0-.5,0h-.4s-.6,0-.6,0h-.6s-.4,0-.4,0h-.2c0,0,0,.2,0,.2v.6s0,.4,0,.4v.5s0,.5,0,.5v.4c0,0,0,.3,0,.3v.2c0,0,.1.1.1.1h.2c0,0,.2,0,.2,0h.4s.4,0,.4,0h.4s.6,0,.6,0h.6ZM72.1,29.6h.5s.5,0,.5,0h.7s.3,0,.3,0h.3c0,0,.2-.2.2-.2l.3-.2.2-.3v-.2c0,0,.2-.2.2-.2v-.3s0-.4,0-.4v-.3s-.1-.3-.1-.3l-.2-.4-.2-.2h-.2c0-.1-.2-.2-.2-.2h0c0,0-.2-.1-.2-.1h-.6c0,0-.7-.1-.7-.1h-.5s-.2,0-.2,0h-1.2s-.3,0-.3,0h-1.9s-.3,0-.3,0v.2c0,0,0,.3,0,.3v.3s0,.4,0,.4v.6s0,.8,0,.8v1c0,0,.2,0,.2,0h0s.4,0,.4,0h1.4s.5,0,.5,0h.5s.6,0,.6,0Z"/>
    <path class="cls-4" d="M95.5,31.9h-.2c0-.1-.6-.9-.6-.9l-.2-.2v-.2c-.1,0-.4-.3-.4-.3l-.2-.3-.4-.4-.3-.4-.2-.2-.3-.4-.3-.3v-.2c0,0-.4-.4-.4-.4l-.4-.5-.3-.4-.2-.2-.2-.2-.2-.2-.2-.2-.2-.3h-.3c0,0-.3.1-.3.1l-.2.2-.2.2-.2.2-.2.3-.2.2-.3.3-.4.4-.4.4v.6c-.1,0,0,.4,0,.4v.4s0,.5,0,.5v.4s0,.2,0,.2v.6s0,.3,0,.3l-.2.3-.4.2h-.6s-.4,0-.4,0h-.2c0,0-.3-.3-.3-.3v-.2c0,0,0-.2,0-.2v-.5c0,0,0-.2,0-.2v-1s0-2.3,0-2.3v-.3s0-.6,0-.6v-3.1s0-.9,0-.9v-.4s0-.2,0-.2v-.3s0-.5,0-.5v-1s0-.4,0-.4v-.5s0-.4,0-.4v-.2s0-.2,0-.2v-.2c0,0,.3-.2.3-.2h.3c0,0,.2,0,.2,0h.2s.4,0,.4,0h.3s.2.1.2.1l.2.3v.3c0,0,0,.5,0,.5v.5s0,1.1,0,1.1v.8s0,.6,0,.6v.4s0,.5,0,.5v.4s0,.5,0,.5v.4s0,.3,0,.3h.3s.4-.5.4-.5l.3-.2.3-.3.5-.4.5-.5.3-.4.4-.3.3-.3.8-.7.4-.4.2-.2.3-.3.3-.4.4-.4.3-.3.2-.2.2-.3.3-.3.3-.3h.1c0,0,.3-.1.3-.1h.5c0,0,.3.3.3.3l.2.2.2.2h0c0,.1.1.4.1.4v.4s-.2.4-.2.4l-.2.2-.2.2-.2.2-.3.3-1.1,1.1-.6.6-.2.2-.3.3-.3.4-.3.3-.2.3v.3c0,0,0,.3,0,.3v.2c.1,0,.3.3.3.3l.2.4.2.2.2.2.2.2.2.2.2.2.2.2.2.2.2.3.3.4.2.3v.2c.1,0,.3.2.3.2v.2c.1,0,.4.3.4.3l.2.3h0c0,.1.2.4.2.4l.3.4.4.5.3.5v.4c.1,0,0,.3,0,.3v.2c-.1,0-.5.3-.5.3l-.4.3h-.4c0,.1-.3.1-.3.1Z"/>
    <path class="cls-4" d="M106.3,32.1h-.6s-.4,0-.4,0h-.9c0,0-.2-.1-.2-.1h-.3c0,0-.4-.2-.4-.2l-.5-.2-.4-.2h-.2c0,0-.2-.2-.2-.2h-.3c0-.1-.2-.3-.2-.3h-.2c0-.1-.3-.4-.3-.4l-.3-.3-.2-.2-.7-.9-.3-.5-.2-.4-.3-.5v-.4c-.1,0-.2-.3-.2-.3v-.5c0,0-.2-.4-.2-.4v-.2s0-.3,0-.3v-.3s0-.3,0-.3v-1c0,0,0-.4,0-.4l.2-.5v-.3c0,0,.2-.5.2-.5l.2-.5.2-.3.2-.4.4-.6.3-.5.2-.2v-.2c.1,0,.3-.2.3-.2l.2-.2h.2c0,0,.2-.3.2-.3l.5-.3.5-.2.6-.3h.4c0-.1.3-.2.3-.2l.5-.2h.5c0,0,.3-.1.3-.1h.5s.7,0,.7,0h.5s.2,0,.2,0h.4c0,0,.4.2.4.2h.3c0,0,.2.1.2.1h.3c0,0,.3.2.3.2h.3c0,.1.3.3.3.3l.4.2.6.4.4.3.4.4.5.6.3.4v.2c.1,0,.3.2.3.2v.2c.1,0,.3.4.3.4l.2.5v.4c.1,0,.2.3.2.3v.2s.1.3.1.3v.5c0,0,.1.3.1.3v.6s0,.3,0,.3v.5s0,.3,0,.3v.3s0,.4,0,.4v.2c0,0-.1.3-.1.3l-.2.5-.2.4-.2.4v.2c-.1,0-.2.2-.2.2l-.2.2v.2c-.1,0-.3.2-.3.2h0c0,.1-.1.3-.1.3l-.2.2-.3.2-.2.2h-.1c0,.1-.2.3-.2.3h-.2c0,.1-.2.3-.2.3h-.1c0,.1-.2.3-.2.3l-.4.2-.4.3h-.3c0,.1-.2.2-.2.2h-.4c0,.1-.5.3-.5.3h-.4c0,0-.6,0-.6,0h-.5ZM107,29.8h.3s.1,0,.1,0h0c0,0,0,0,0,0h.3s.3-.2.3-.2h.2c0,0,.4-.3.4-.3l.4-.3.5-.4.3-.3h0c0-.1.2-.4.2-.4l.3-.4.4-.6v-.4c.1,0,.2-.4.2-.4v-.4c0,0,0-.5,0-.5v-.3s0-.5,0-.5v-.7c-.1,0-.3-.5-.3-.5l-.2-.4v-.3c0,0-.2-.2-.2-.2l-.2-.3-.2-.3v-.2c-.1,0-.4-.2-.4-.2l-.7-.5-.6-.4-.4-.2h-.4c0-.1-.2-.2-.2-.2h-.3c0,0-.3-.2-.3-.2h-1.4c0,0-.4,0-.4,0h-.5c0,.1-.7.4-.7.4l-1.1.6-.2.2-.2.2h-.1c0,0-.2.4-.2.4l-.2.3h0c0,.1,0,.4,0,.4v.3c-.1,0-.3.3-.3.3v.3c0,0-.1.3-.1.3v.4c0,0-.1.5-.1.5v.2s0,.3,0,.3v.3s0,.3,0,.3h0c0,0,0,.3,0,.3v.4c0,0,.1.3.1.3l.2.4.5.7.4.5v.2c.1,0,.5.3.5.3l.4.3h.1c0,0,0,.1,0,.1l.4.2.4.2h.3c0,0,.6.2.6.2h.6c0,0,.5,0,.5,0h.6Z"/>
    <path class="cls-4" d="M122.3,32.2h-.4s-.5,0-.5,0h-.4c0,0-.9-.2-.9-.2h-.3c0,0-.6-.3-.6-.3h-.2c0,0-.2-.2-.2-.2h-.2c0,0-.1-.2-.1-.2h-.3c0-.1-.2-.3-.2-.3h-.2c0-.1-.2-.4-.2-.4h0c0,0-.2-.3-.2-.3l-.2-.2-.3-.3-.2-.3v-.2c-.1,0-.3-.2-.3-.2v-.2c-.1,0-.3-.3-.3-.3l-.2-.4v-.3c-.1,0-.3-.3-.3-.3l-.2-.4v-.3c0,0-.2-.3-.2-.3v-.3s0-.2,0-.2v-.3s0-.3,0-.3v-.5s0-.3,0-.3v-1c0,0,.1-.2.1-.2v-.5c.1,0,.3-.6.3-.6l.2-.5v-.3c.1,0,.2-.2.2-.2l.2-.3v-.2c0,0,0,0,0,0l.2-.2.3-.4.3-.4.3-.3.3-.3.4-.3.5-.3.4-.3.6-.3h.3c0-.1.3-.2.3-.2h.3c0,0,.3-.2.3-.2h.6c0-.1.3-.2.3-.2h.2s.4,0,.4,0h.4s.4,0,.4,0h.4c0,0,.2,0,.2,0h.4s.4.2.4.2l.6.2.5.2h.1c0,0,.4.3.4.3l.5.2.4.3.4.3.3.2.3.3.3.3.2.4v.3c0,0,0,.3,0,.3l-.2.3-.2.3-.3.3h-.3c0,.1-.3.2-.3.2h-.3c0,0-.2-.2-.2-.2l-.3-.3-.3-.3-.2-.3-.3-.2-.2-.2-.4-.2-.3-.2h-.3c0,0-.5-.2-.5-.2h-.4c0,0-.4,0-.4,0h-.5c0,0-.5,0-.5,0h-.4c0,0-.4.2-.4.2h-.4c0,.1-.4.3-.4.3l-.5.3-.3.2-.2.2-.3.3-.2.2-.2.3-.3.4-.3.6-.3.7v.3c0,0,0,.3,0,.3v.4s0,.5,0,.5v.5c0,0,.1.5.1.5v.3c0,0,.2.3.2.3v.3c.1,0,.2.2.2.2v.2c0,0,.2.2.2.2h0c0,0,.2.3.2.3l.2.4.2.2.2.2.3.2.3.3h.2c0,.1.4.4.4.4l.4.2h.3c0,0,.4.2.4.2h.6c0,0,.4.1.4.1h.7s.6-.1.6-.1h.4c0,0,.4-.2.4-.2h.3c0-.1.3-.3.3-.3l.4-.3.4-.3.6-.6.2-.2h.3c0-.1.4-.2.4-.2l.6.2.5.5v.3c.1,0,0,.2,0,.2v.3c0,0-.3.4-.3.4l-.2.2-.3.4-1,.7-.3.2h-.2c0,.1-1.1.6-1.1.6h-.3c0,0-.3.1-.3.1h-.3c0,0-.3.1-.3.1h-.6s-.4,0-.4,0h-.4Z"/>
    <path class="cls-4" d="M131.3,31.8l-.4-.2v-.2c-.1,0-.2-.3-.2-.3v-.4s0-.3,0-.3v-.4s0-.5,0-.5v-.3s0-.3,0-.3v-.6s0-.3,0-.3v-.7c0,0,0-.9,0-.9v-.3s0-.2,0-.2v-.9s0-.6,0-.6v-.3s0-.5,0-.5v-.5s0-1.4,0-1.4v-.7s0-.4,0-.4v-.4s0-.5,0-.5v-1.1s.2-.2.2-.2h0c0,0,.3-.3.3-.3h.5c0,0,.4,0,.4,0h.3c0,0,.2.1.2.1h.1c0,.1.1.3.1.3v.2c0,0,0,.2,0,.2v.3s0,.6,0,.6v.6s0,.4,0,.4v.4s0,.9,0,.9v.4s0,.4,0,.4v.4s0,.2,0,.2h0c0,.1.2.2.2.2h.4s.6,0,.6,0h1.1s.5,0,.5,0h2.1s.4,0,.4,0h.6s.5,0,.5,0h.3s.2,0,.2,0v-.2c0,0,.2-.3.2-.3v-.3s0-.9,0-.9v-.6s0-.3,0-.3v-2.3c0,0,.1-.2.1-.2v-.2c0,0,.4-.2.4-.2h.4c0,0,.3,0,.3,0h.7c0,0,.3.3.3.3v.4c0,0,.1.3.1.3v.4s0,.4,0,.4v1.1s0,.7,0,.7v.6s0,.6,0,.6v.9s0,.3,0,.3v.4s0,.5,0,.5v.7s0,.6,0,.6v.5s0,.5,0,.5v.6s0,.4,0,.4v.4s0,.3,0,.3v.6s0,.3,0,.3v.3s0,.2,0,.2v.7s-.1.4-.1.4l-.2.3h-.3c0,.1-.5.2-.5.2h-.6s-.2-.1-.2-.1l-.3-.2v-.3c-.1,0-.2-.3-.2-.3v-.7s0-3.7,0-3.7v-.5s-.2-.2-.2-.2h-.3s-1,0-1,0h-.5s-.8,0-.8,0h-.8s-.7,0-.7,0h-.5s-.4,0-.4,0h-.6s-.5,0-.5,0h-.3s-.1,0-.1,0l-.3.3v.5c0,0,0,1.8,0,1.8v.3s0,.3,0,.3v.4s0,.5,0,.5v.7s0,.4,0,.4v.4s-.2.2-.2.2h-.2c0,.1-.4.3-.4.3h-.4c0,0-.2,0-.2,0h-.4Z"/>
  </g>
</svg>